400i.ufo
<glyph name="quotedbl" format="2">
  <advance width="437"/>
  <unicode hex="0022"/>
  <outline>
    <contour>
      <point x="301" y="699" type="line"/>
      <point x="398" y="699" type="line"/>
      <point x="218" y="402" type="line"/>
      <point x="163" y="401" type="line"/>
    </contour>
    <contour>
      <point x="470" y="699" type="line"/>
      <point x="567" y="699" type="line"/>
      <point x="387" y="402" type="line"/>
      <point x="332" y="401" type="line"/>
    </contour>
  </outline>
</glyph>
<glyph name="numbersign" format="2">
  <advance width="569"/>
  <unicode hex="0023"/>
  <outline>
    <contour>
      <point x="166" y="441" type="line"/>
      <point x="187" y="504" type="line"/>
      <point x="655" y="504" type="line"/>
      <point x="634" y="441" type="line"/>
      <point x="506" y="440" type="line"/>
      <point x="493" y="440" type="line"/>
      <point x="312" y="440" type="line"/>
      <point x="299" y="440" type="line"/>
    </contour>
    <contour>
      <point x="47" y="201" type="line"/>
      <point x="67" y="264" type="line"/>
      <point x="187" y="265" type="line"/>
      <point x="202" y="265" type="line"/>
      <point x="390" y="265" type="line"/>
      <point x="409" y="265" type="line"/>
      <point x="535" y="264" type="line"/>
      <point x="515" y="201" type="line"/>
    </contour>
    <contour>
      <point x="609" y="699" type="line"/>
      <point x="688" y="699" type="line"/>
      <point x="286" y="0" type="line"/>
      <point x="210" y="0" type="line"/>
      <point x="341" y="228" type="line"/>
      <point x="352" y="246" type="line"/>
      <point x="474" y="462" type="line"/>
      <point x="483" y="478" type="line"/>
    </contour>
    <contour>
      <point x="411" y="699" type="line"/>
      <point x="490" y="699" type="line"/>
      <point x="364" y="482" type="line"/>
      <point x="355" y="466" type="line"/>
      <point x="229" y="244" type="line"/>
      <point x="219" y="226" type="line"/>
      <point x="88" y="0" type="line"/>
      <point x="16" y="0" type="line"/>
    </contour>
  </outline>
</glyph>
<glyph name="parenright" format="2">
  <advance width="291"/>
  <unicode hex="0029"/>
  <outline>
    <contour>
      <point x="6" y="-198" type="curve"/>
      <point x="-68" y="-198" type="line"/>
      <point x="39" y="-49"/>
      <point x="121" y="115"/>
      <point x="176" y="290" type="curve" smooth="yes"/>
      <point x="225" y="449"/>
      <point x="252" y="615"/>
      <point x="232" y="781" type="curve"/>
      <point x="303" y="781" type="line"/>
      <point x="331" y="616"/>
      <point x="312" y="449"/>
      <point x="264" y="290" type="curve" smooth="yes"/>
      <point x="210" y="112"/>
      <point x="123" y="-54"/>
    </contour>
  </outline>
</glyph>
<glyph name="hyphen" format="2">
  <advance width="197"/>
  <unicode hex="002D"/>
  <outline>
    <contour>
      <point x="19" y="201" type="line"/>
      <point x="44" y="275" type="line"/>
      <point x="236" y="275" type="line"/>
      <point x="210" y="201" type="line"/>
    </contour>
  </outline>
</glyph>
<glyph name="period" format="2">
  <advance width="282"/>
  <unicode hex="002E"/>
  <outline>
    <contour>
      <point x="46" y="40" type="curve" smooth="yes"/>
      <point x="46" y="70"/>
      <point x="70" y="94"/>
      <point x="100" y="94" type="curve" smooth="yes"/>
      <point x="130" y="94"/>
      <point x="154" y="70"/>
      <point x="154" y="40" type="curve" smooth="yes"/>
      <point x="154" y="10"/>
      <point x="130" y="-14"/>
      <point x="100" y="-14" type="curve" smooth="yes"/>
      <point x="70" y="-14"/>
      <point x="46" y="10"/>
    </contour>
  </outline>
</glyph>
<glyph name="slash" format="2">
  <advance width="484"/>
  <unicode hex="002F"/>
  <outline>
    <contour>
      <point x="575" y="699" type="line"/>
      <point x="660" y="699" type="line"/>
      <point x="-14" y="-149" type="line"/>
      <point x="-92" y="-148" type="line"/>
    </contour>
  </outline>
</glyph>
<glyph name="four" format="2">
  <advance width="548"/>
  <unicode hex="0034"/>
  <outline>
    <contour>
      <point x="13" y="142" type="line"/>
      <point x="565" y="698" type="line"/>
      <point x="602" y="699" type="line"/>
      <point x="363" y="0" type="line"/>
      <point x="280" y="0" type="line"/>
      <point x="341" y="176" type="line"/>
      <point x="345" y="187" type="line"/>
      <point x="454" y="500" type="line"/>
      <point x="174" y="216" type="line"/>
      <point x="383" y="215" type="line"/>
      <point x="399" y="215" type="line"/>
      <point x="542" y="215" type="line"/>
      <point x="517" y="140" type="line"/>
    </contour>
  </outline>
</glyph>
<glyph name="eight" format="2">
  <advance width="513"/>
  <unicode hex="0038"/>
  <outline>
    <contour>
      <point x="201" y="532" type="curve" smooth="yes"/>
      <point x="232" y="629"/>
      <point x="336" y="710"/>
      <point x="439" y="709" type="curve" smooth="yes"/>
      <point x="538" y="708"/>
      <point x="595" y="623"/>
      <point x="567" y="530" type="curve" smooth="yes"/>
      <point x="536" y="429"/>
      <point x="435" y="356"/>
      <point x="330" y="356" type="curve" smooth="yes"/>
      <point x="228" y="356"/>
      <point x="170" y="435"/>
    </contour>
    <contour>
      <point x="275" y="521" type="curve" smooth="yes"/>
      <point x="257" y="470"/>
      <point x="277" y="413"/>
      <point x="337" y="411" type="curve" smooth="yes"/>
      <point x="399" y="409"/>
      <point x="465" y="465"/>
      <point x="486" y="521" type="curve" smooth="yes"/>
      <point x="505" y="572"/>
      <point x="487" y="632"/>
      <point x="425" y="634" type="curve" smooth="yes"/>
      <point x="361" y="636"/>
      <point x="296" y="579"/>
    </contour>
    <contour>
      <point x="61" y="191" type="curve" smooth="yes"/>
      <point x="96" y="303"/>
      <point x="212" y="390"/>
      <point x="330" y="389" type="curve" smooth="yes"/>
      <point x="443" y="389"/>
      <point x="508" y="297"/>
      <point x="474" y="189" type="curve" smooth="yes"/>
      <point x="439" y="79"/>
      <point x="321" y="-10"/>
      <point x="205" y="-9" type="curve" smooth="yes"/>
      <point x="95" y="-8"/>
      <point x="29" y="87"/>
    </contour>
    <contour>
      <point x="142" y="200" type="curve" smooth="yes"/>
      <point x="119" y="136"/>
      <point x="145" y="68"/>
      <point x="219" y="66" type="curve" smooth="yes"/>
      <point x="295" y="64"/>
      <point x="375" y="130"/>
      <point x="400" y="200" type="curve" smooth="yes"/>
      <point x="421" y="261"/>
      <point x="395" y="332"/>
      <point x="323" y="334" type="curve" smooth="yes"/>
      <point x="248" y="336"/>
      <point x="167" y="267"/>
    </contour>
  </outline>
</glyph>
<glyph name="semicolon" format="2">
  <advance width="310"/>
  <unicode hex="003B"/>
  <outline>
    <contour>
      <point x="205" y="420" type="curve" smooth="yes"/>
      <point x="205" y="450"/>
      <point x="229" y="474"/>
      <point x="259" y="474" type="curve" smooth="yes"/>
      <point x="289" y="474"/>
      <point x="313" y="450"/>
      <point x="313" y="420" type="curve" smooth="yes"/>
      <point x="313" y="390"/>
      <point x="289" y="366"/>
      <point x="259" y="366" type="curve" smooth="yes"/>
      <point x="229" y="366"/>
      <point x="205" y="390"/>
    </contour>
    <contour>
      <point x="119" y="108" type="line"/>
      <point x="191" y="76" type="line"/>
      <point x="2" y="-168" type="line"/>
      <point x="-51" y="-147" type="line"/>
    </contour>
  </outline>
</glyph>
<glyph name="question" format="2">
  <advance width="524"/>
  <unicode hex="003F"/>
  <outline>
    <contour>
      <point x="507" y="500" type="curve" smooth="yes"/>
      <point x="534" y="571"/>
      <point x="500" y="633"/>
      <point x="421" y="634" type="curve" smooth="yes"/>
      <point x="356" y="635"/>
      <point x="302" y="594"/>
      <point x="256" y="553" type="curve"/>
      <point x="203" y="596" type="line"/>
      <point x="270" y="659"/>
      <point x="349" y="711"/>
      <point x="445" y="709" type="curve" smooth="yes"/>
      <point x="561" y="707"/>
      <point x="620" y="606"/>
      <point x="586" y="499" type="curve" smooth="yes"/>
      <point x="548" y="381"/>
      <point x="435" y="311"/>
      <point x="318" y="290" type="curve"/>
      <point x="267" y="171" type="line"/>
      <point x="209" y="171" type="line"/>
      <point x="247" y="345" type="line"/>
      <point x="270" y="345" type="line" smooth="yes"/>
      <point x="366" y="350"/>
      <point x="472" y="406"/>
    </contour>
    <contour>
      <point x="141" y="40" type="curve" smooth="yes"/>
      <point x="141" y="69.7383"/>
      <point x="164.82" y="94"/>
      <point x="195" y="94" type="curve" smooth="yes"/>
      <point x="227" y="94"/>
      <point x="249" y="66.6836"/>
      <point x="249" y="40" type="curve" smooth="yes"/>
      <point x="249" y="10"/>
      <point x="225" y="-14"/>
      <point x="195" y="-14" type="curve" smooth="yes"/>
      <point x="162.834" y="-14"/>
      <point x="141" y="12"/>
    </contour>
  </outline>
</glyph>
<glyph name="B" format="2">
  <advance width="525"/>
  <unicode hex="0042"/>
  <outline>
    <contour>
      <point x="210" y="371" type="line"/>
      <point x="225" y="416" type="line"/>
      <point x="328" y="417" type="line" smooth="yes"/>
      <point x="392" y="418"/>
      <point x="460" y="456"/>
      <point x="483" y="520" type="curve" smooth="yes"/>
      <point x="505" y="580"/>
      <point x="468" y="623"/>
      <point x="409" y="624" type="curve" smooth="yes"/>
      <point x="316" y="625" type="line"/>
      <point x="128" y="75" type="line"/>
      <point x="219" y="76" type="line" smooth="yes"/>
      <point x="303" y="77"/>
      <point x="385" y="129"/>
      <point x="415" y="210" type="curve" smooth="yes"/>
      <point x="443" y="287"/>
      <point x="398" y="342"/>
      <point x="321" y="343" type="curve" smooth="yes"/>
      <point x="200" y="344" type="line"/>
      <point x="216" y="389" type="line"/>
      <point x="328" y="390" type="line" smooth="yes"/>
      <point x="439" y="387"/>
      <point x="532" y="326"/>
      <point x="495" y="204" type="curve" smooth="yes"/>
      <point x="456" y="77"/>
      <point x="333" y="0"/>
      <point x="206" y="0" type="curve" smooth="yes"/>
      <point x="19" y="0" type="line"/>
      <point x="259" y="700" type="line"/>
      <point x="423" y="700" type="line" smooth="yes"/>
      <point x="526" y="700"/>
      <point x="603" y="634"/>
      <point x="567" y="524" type="curve" smooth="yes"/>
      <point x="533" y="420"/>
      <point x="423" y="374"/>
      <point x="321" y="371" type="curve" smooth="yes"/>
    </contour>
  </outline>
</glyph>
<glyph name="H" format="2">
  <advance width="672"/>
  <unicode hex="0048"/>
  <outline>
    <contour>
      <point x="182" y="341" type="line"/>
      <point x="208" y="420" type="line"/>
      <point x="663" y="420" type="line"/>
      <point x="636" y="341" type="line"/>
    </contour>
    <contour>
      <point x="699" y="699" type="line"/>
      <point x="786" y="700" type="line"/>
      <point x="543" y="0" type="line"/>
      <point x="464" y="0" type="line"/>
    </contour>
    <contour>
      <point x="257" y="699" type="line"/>
      <point x="343" y="700" type="line"/>
      <point x="101" y="0" type="line"/>
      <point x="22" y="0" type="line"/>
    </contour>
  </outline>
</glyph>
<glyph name="J" format="2">
  <advance width="225"/>
  <unicode hex="004A"/>
  <outline>
    <contour>
      <point x="-157" y="-105" type="line"/>
      <point x="-141" y="-126"/>
      <point x="-125" y="-142"/>
      <point x="-96" y="-140" type="curve" smooth="yes"/>
      <point x="-48" y="-136"/>
      <point x="-12" y="-91"/>
      <point x="2" y="-50" type="curve" smooth="yes"/>
      <point x="259" y="700" type="line"/>
      <point x="338" y="700" type="line"/>
      <point x="79" y="-61" type="line" smooth="yes"/>
      <point x="47" y="-145"/>
      <point x="-22" y="-221"/>
      <point x="-118" y="-219" type="curve" smooth="yes"/>
      <point x="-161" y="-218"/>
      <point x="-190" y="-199"/>
      <point x="-218" y="-168" type="curve"/>
    </contour>
  </outline>
</glyph>
<glyph name="K" format="2">
  <advance width="531"/>
  <unicode hex="004B"/>
  <outline>
    <contour>
      <point x="257" y="700" type="line"/>
      <point x="343" y="700" type="line"/>
      <point x="101" y="0" type="line"/>
      <point x="22" y="0" type="line"/>
    </contour>
    <contour>
      <point x="594" y="699" type="line"/>
      <point x="703" y="699" type="line"/>
      <point x="299" y="368" type="line"/>
      <point x="470" y="0" type="line"/>
      <point x="377" y="0" type="line"/>
      <point x="203" y="375" type="line"/>
    </contour>
  </outline>
</glyph>
<glyph name="P" format="2">
  <advance width="515"/>
  <unicode hex="0050"/>
  <outline>
    <contour>
      <point x="257" y="699" type="line"/>
      <point x="343" y="700" type="line"/>
      <point x="101" y="0" type="line"/>
      <point x="22" y="0" type="line"/>
    </contour>
    <contour>
      <point x="274" y="620" type="line"/>
      <point x="303" y="700" type="line"/>
      <point x="433" y="700" type="line" smooth="yes"/>
      <point x="552" y="700"/>
      <point x="631" y="609"/>
      <point x="593" y="489" type="curve" smooth="yes"/>
      <point x="554" y="364"/>
      <point x="428" y="280"/>
      <point x="301" y="280" type="curve" smooth="yes"/>
      <point x="158" y="280" type="line"/>
      <point x="187" y="360" type="line"/>
      <point x="317" y="360" type="line" smooth="yes"/>
      <point x="400" y="364"/>
      <point x="480" y="409"/>
      <point x="510" y="490" type="curve" smooth="yes"/>
      <point x="538" y="567"/>
      <point x="493" y="618"/>
      <point x="417" y="619" type="curve" smooth="yes"/>
    </contour>
  </outline>
</glyph>
<glyph name="S" format="2">
  <advance width="515"/>
  <unicode hex="0053"/>
  <outline>
    <contour>
      <point x="106" y="212" type="line"/>
      <point x="133" y="127"/>
      <point x="167" y="70"/>
      <point x="251" y="70" type="curve" smooth="yes"/>
      <point x="356" y="70"/>
      <point x="417" y="156"/>
      <point x="417" y="220" type="curve" smooth="yes"/>
      <point x="417" y="284"/>
      <point x="371.819" y="304.953"/>
      <point x="310" y="341" type="curve" smooth="yes"/>
      <point x="257.679" y="371.509"/>
      <point x="185" y="422"/>
      <point x="185" y="509" type="curve" smooth="yes"/>
      <point x="185" y="613"/>
      <point x="269" y="710"/>
      <point x="408" y="710" type="curve" smooth="yes"/>
      <point x="521" y="710"/>
      <point x="582" y="641"/>
      <point x="607" y="558" type="curve"/>
      <point x="534" y="523" type="line"/>
      <point x="517" y="575"/>
      <point x="485" y="630"/>
      <point x="393" y="630" type="curve" smooth="yes"/>
      <point x="317" y="630"/>
      <point x="271" y="585"/>
      <point x="271" y="520" type="curve" smooth="yes"/>
      <point x="271" y="461"/>
      <point x="324.453" y="421.345"/>
      <point x="376" y="395" type="curve" smooth="yes"/>
      <point x="438.013" y="363.306"/>
      <point x="503" y="327"/>
      <point x="503" y="230" type="curve" smooth="yes"/>
      <point x="503" y="108"/>
      <point x="389" y="-10"/>
      <point x="248" y="-10" type="curve" smooth="yes"/>
      <point x="134" y="-10"/>
      <point x="63" y="73"/>
      <point x="38" y="166" type="curve"/>
    </contour>
  </outline>
</glyph>
<glyph name="W" format="2">
  <advance width="931"/>
  <unicode hex="0057"/>
  <outline>
    <contour>
      <point x="677" y="180" type="line"/>
      <point x="1012" y="699" type="line"/>
      <point x="1108" y="699" type="line"/>
      <point x="618" y="-39" type="line"/>
      <point x="590" y="505" type="line"/>
      <point x="223" y="-39" type="line"/>
      <point x="191" y="700" type="line"/>
      <point x="280" y="700" type="line"/>
      <point x="291" y="180" type="line"/>
      <point x="659" y="739" type="line"/>
    </contour>
  </outline>
</glyph>
<glyph name="bracketright" format="2">
  <advance width="282"/>
  <unicode hex="005D"/>
  <outline>
    <contour>
      <point x="32" y="-145" type="line"/>
      <point x="295" y="705" type="line"/>
      <point x="200" y="705" type="line"/>
      <point x="224" y="780" type="line"/>
      <point x="396" y="780" type="line"/>
      <point x="87" y="-220" type="line"/>
      <point x="-86" y="-220" type="line"/>
      <point x="-63" y="-146" type="line"/>
    </contour>
  </outline>
</glyph>
<glyph name="o" format="2">
  <advance width="513"/>
  <unicode hex="006F"/>
  <outline>
    <contour>
      <point x="68" y="230" type="curve" smooth="yes"/>
      <point x="104" y="356"/>
      <point x="227" y="469"/>
      <point x="362" y="469" type="curve" smooth="yes"/>
      <point x="494" y="469"/>
      <point x="553" y="347"/>
      <point x="519" y="230" type="curve" smooth="yes"/>
      <point x="483" y="104"/>
      <point x="360" y="-9"/>
      <point x="225" y="-9" type="curve" smooth="yes"/>
      <point x="93" y="-9"/>
      <point x="34" y="113"/>
    </contour>
    <contour>
      <point x="146" y="230" type="curve" smooth="yes"/>
      <point x="121" y="156"/>
      <point x="147" y="67"/>
      <point x="237" y="66" type="curve" smooth="yes"/>
      <point x="329" y="65"/>
      <point x="413" y="147"/>
      <point x="441" y="230" type="curve" smooth="yes"/>
      <point x="466" y="304"/>
      <point x="439" y="393"/>
      <point x="349" y="394" type="curve" smooth="yes"/>
      <point x="257" y="395"/>
      <point x="174" y="313"/>
    </contour>
  </outline>
</glyph>
<glyph name="p" format="2">
  <advance width="536"/>
  <unicode hex="0070"/>
  <outline>
    <contour>
      <point x="15" y="-219" type="line"/>
      <point x="-67" y="-220" type="line"/>
      <point x="169" y="460" type="line"/>
      <point x="243" y="459" type="line"/>
    </contour>
    <contour>
      <point x="529" y="230" type="curve" smooth="yes"/>
      <point x="490" y="108"/>
      <point x="372" y="-12"/>
      <point x="237" y="-10" type="curve" smooth="yes"/>
      <point x="105" y="-8"/>
      <point x="98" y="132"/>
      <point x="130" y="230" type="curve" smooth="yes"/>
      <point x="166" y="343"/>
      <point x="259" y="468"/>
      <point x="389" y="469" type="curve" smooth="yes"/>
      <point x="523" y="470"/>
      <point x="565" y="341"/>
    </contour>
    <contour>
      <point x="451" y="230" type="curve" smooth="yes"/>
      <point x="478" y="303"/>
      <point x="458" y="394"/>
      <point x="366" y="394" type="curve" smooth="yes"/>
      <point x="276" y="394"/>
      <point x="195" y="309"/>
      <point x="166" y="230" type="curve" smooth="yes"/>
      <point x="142" y="162"/>
      <point x="155" y="70"/>
      <point x="242" y="66" type="curve" smooth="yes"/>
      <point x="336" y="62"/>
      <point x="421" y="148"/>
    </contour>
  </outline>
</glyph>
<glyph name="s" format="2">
  <advance width="379"/>
  <unicode hex="0073"/>
  <outline>
    <contour>
      <point x="97" y="137" type="line"/>
      <point x="125" y="94"/>
      <point x="162" y="61"/>
      <point x="219" y="61" type="curve" smooth="yes"/>
      <point x="264" y="61"/>
      <point x="297" y="95"/>
      <point x="297" y="131" type="curve" smooth="yes"/>
      <point x="297" y="172"/>
      <point x="252.492" y="199.955"/>
      <point x="221" y="214" type="curve" smooth="yes"/>
      <point x="178.609" y="232.906"/>
      <point x="122" y="261"/>
      <point x="122" y="332" type="curve" smooth="yes"/>
      <point x="122" y="424"/>
      <point x="198" y="470"/>
      <point x="273" y="470" type="curve" smooth="yes"/>
      <point x="346" y="470"/>
      <point x="394" y="432"/>
      <point x="422" y="381" type="curve"/>
      <point x="368" y="342" type="line"/>
      <point x="343" y="376"/>
      <point x="311" y="404"/>
      <point x="273" y="404" type="curve" smooth="yes"/>
      <point x="222" y="404"/>
      <point x="197" y="378"/>
      <point x="197" y="347" type="curve" smooth="yes"/>
      <point x="197" y="310"/>
      <point x="223.582" y="294.944"/>
      <point x="263" y="276" type="curve" smooth="yes"/>
      <point x="320.916" y="248.166"/>
      <point x="373" y="222"/>
      <point x="373" y="140" type="curve" smooth="yes"/>
      <point x="373" y="60"/>
      <point x="304" y="-10"/>
      <point x="210" y="-10" type="curve" smooth="yes"/>
      <point x="118" y="-10"/>
      <point x="56" y="47"/>
      <point x="31" y="102" type="curve"/>
    </contour>
  </outline>
</glyph>
<glyph name="v" format="2">
  <advance width="413"/>
  <unicode hex="0076"/>
  <outline>
    <contour>
      <point x="108" y="460" type="line"/>
      <point x="192" y="460" type="line"/>
      <point x="214" y="141" type="line"/>
      <point x="434" y="459" type="line"/>
      <point x="526" y="459" type="line"/>
      <point x="162" y="-38" type="line"/>
    </contour>
  </outline>
</glyph>
<glyph name="w" format="2">
  <advance width="639"/>
  <unicode hex="0077"/>
  <outline>
    <contour>
      <point x="109" y="460" type="line"/>
      <point x="192" y="460" type="line"/>
      <point x="196" y="166" type="line"/>
      <point x="431" y="499" type="line"/>
      <point x="439" y="164" type="line"/>
      <point x="651" y="459" type="line"/>
      <point x="743" y="459" type="line"/>
      <point x="380" y="-39" type="line"/>
      <point x="367" y="296" type="line"/>
      <point x="126" y="-39" type="line"/>
    </contour>
  </outline>
</glyph>
<glyph name="cent" format="2">
  <advance width="545"/>
  <unicode hex="00A2"/>
  <outline>
    <contour>
      <point x="221" y="37" type="line"/>
      <point x="284" y="37" type="line"/>
      <point x="232" y="-111" type="line"/>
      <point x="170" y="-111" type="line"/>
    </contour>
    <contour>
      <point x="177" y="230" type="curve" smooth="yes"/>
      <point x="150" y="156"/>
      <point x="173" y="69"/>
      <point x="263" y="66" type="curve" smooth="yes"/>
      <point x="333" y="64"/>
      <point x="396" y="103"/>
      <point x="447" y="147" type="curve"/>
      <point x="416" y="48" type="line"/>
      <point x="366" y="14"/>
      <point x="310" y="-9"/>
      <point x="248" y="-9" type="curve" smooth="yes"/>
      <point x="115" y="-8"/>
      <point x="62" y="114"/>
      <point x="99" y="230" type="curve" smooth="yes"/>
      <point x="139" y="357"/>
      <point x="264" y="468"/>
      <point x="401" y="469" type="curve" smooth="yes"/>
      <point x="456" y="469"/>
      <point x="500" y="450"/>
      <point x="537" y="410" type="curve"/>
      <point x="505" y="311" type="line"/>
      <point x="486" y="366"/>
      <point x="446" y="395"/>
      <point x="387" y="394" type="curve" smooth="yes"/>
      <point x="294" y="393"/>
      <point x="208" y="314"/>
    </contour>
    <contour>
      <point x="406" y="577" type="line"/>
      <point x="468" y="577" type="line"/>
      <point x="416" y="429" type="line"/>
      <point x="354" y="429" type="line"/>
    </contour>
  </outline>
</glyph>
<glyph name="currency" format="2">
  <advance width="545"/>
  <unicode hex="00A4"/>
  <outline>
    <contour>
      <point x="151" y="506" type="line"/>
      <point x="213" y="552" type="line"/>
      <point x="273" y="456" type="line"/>
      <point x="212" y="411" type="line"/>
    </contour>
    <contour>
      <point x="46" y="48" type="line"/>
      <point x="12" y="101" type="line"/>
      <point x="131" y="189" type="line"/>
      <point x="165" y="137" type="line"/>
    </contour>
    <contour>
      <point x="511" y="411" type="line"/>
      <point x="476" y="463" type="line"/>
      <point x="596" y="552" type="line"/>
      <point x="629" y="499" type="line"/>
    </contour>
    <contour>
      <point x="368" y="144" type="line"/>
      <point x="430" y="189" type="line"/>
      <point x="490" y="94" type="line"/>
      <point x="429" y="48" type="line"/>
    </contour>
    <contour>
      <point x="95" y="300" type="curve" smooth="yes"/>
      <point x="135" y="425"/>
      <point x="261" y="539"/>
      <point x="397" y="539" type="curve" smooth="yes"/>
      <point x="530" y="539"/>
      <point x="584" y="416"/>
      <point x="547" y="300" type="curve" smooth="yes"/>
      <point x="507" y="175"/>
      <point x="381" y="61"/>
      <point x="245" y="61" type="curve" smooth="yes"/>
      <point x="112" y="61"/>
      <point x="58" y="184"/>
    </contour>
    <contour>
      <point x="174" y="300" type="curve" smooth="yes"/>
      <point x="147" y="227"/>
      <point x="168" y="137"/>
      <point x="259" y="136" type="curve" smooth="yes"/>
      <point x="352" y="135"/>
      <point x="438" y="217"/>
      <point x="468" y="300" type="curve" smooth="yes"/>
      <point x="495" y="373"/>
      <point x="474" y="463"/>
      <point x="383" y="464" type="curve" smooth="yes"/>
      <point x="290" y="465"/>
      <point x="204" y="383"/>
    </contour>
  </outline>
</glyph>
<glyph name="guillemotleft" format="2">
  <advance width="479"/>
  <unicode hex="00AB"/>
  <outline>
    <contour>
      <point x="307" y="258" type="line"/>
      <point x="383" y="63" type="line"/>
      <point x="323" y="20" type="line"/>
      <point x="221" y="261" type="line"/>
      <point x="477" y="489" type="line"/>
      <point x="513" y="442" type="line"/>
    </contour>
    <contour>
      <point x="156" y="258" type="line"/>
      <point x="233" y="63" type="line"/>
      <point x="172" y="20" type="line"/>
      <point x="70" y="261" type="line"/>
      <point x="326" y="489" type="line"/>
      <point x="363" y="442" type="line"/>
    </contour>
  </outline>
</glyph>
<glyph name="degree" format="2">
  <advance width="261"/>
  <unicode hex="00B0"/>
  <outline>
    <contour>
      <point x="168" y="601" type="curve" smooth="yes"/>
      <point x="187" y="662"/>
      <point x="252" y="720"/>
      <point x="318" y="719" type="curve" smooth="yes"/>
      <point x="384" y="718"/>
      <point x="413" y="658"/>
      <point x="395" y="599" type="curve" smooth="yes"/>
      <point x="376" y="538"/>
      <point x="311" y="480"/>
      <point x="245" y="481" type="curve" smooth="yes"/>
      <point x="179" y="482"/>
      <point x="150" y="542"/>
    </contour>
    <contour>
      <point x="207" y="600" type="curve" smooth="yes"/>
      <point x="194" y="565"/>
      <point x="206" y="520"/>
      <point x="249" y="519" type="curve" smooth="yes"/>
      <point x="294" y="518"/>
      <point x="341" y="560"/>
      <point x="356" y="600" type="curve" smooth="yes"/>
      <point x="369" y="635"/>
      <point x="357" y="680"/>
      <point x="314" y="681" type="curve" smooth="yes"/>
      <point x="269" y="682"/>
      <point x="222" y="640"/>
    </contour>
  </outline>
</glyph>
<glyph name="plusminus" format="2">
  <advance width="578"/>
  <unicode hex="00B1"/>
  <outline>
    <contour>
      <point x="28" y="0" type="line"/>
      <point x="51" y="80" type="line"/>
      <point x="511" y="80" type="line"/>
      <point x="486" y="0" type="line"/>
    </contour>
    <contour>
      <point x="134" y="345" type="line"/>
      <point x="158" y="425" type="line"/>
      <point x="617" y="425" type="line"/>
      <point x="592" y="345" type="line"/>
    </contour>
    <contour>
      <point x="403" y="620" type="line"/>
      <point x="489" y="620" type="line"/>
      <point x="341" y="150" type="line"/>
      <point x="262" y="151" type="line"/>
    </contour>
  </outline>
</glyph>
<glyph name="uni00B3" format="2">
  <advance width="293"/>
  <unicode hex="00B3"/>
  <outline>
    <contour>
      <point x="244" y="489" type="curve"/>
      <point x="255" y="520" type="line"/>
      <point x="299" y="530"/>
      <point x="345" y="546"/>
      <point x="362" y="593" type="curve" smooth="yes"/>
      <point x="373" y="623"/>
      <point x="363" y="656"/>
      <point x="328" y="659" type="curve" smooth="yes"/>
      <point x="288" y="663"/>
      <point x="259" y="626"/>
      <point x="238" y="598" type="curve"/>
      <point x="188" y="599" type="line"/>
      <point x="218" y="654"/>
      <point x="266" y="707"/>
      <point x="335" y="705" type="curve" smooth="yes"/>
      <point x="397" y="703"/>
      <point x="430" y="650"/>
      <point x="411" y="593" type="curve" smooth="yes"/>
      <point x="388" y="521"/>
      <point x="311" y="498"/>
    </contour>
    <contour>
      <point x="194" y="275" type="curve" smooth="yes"/>
      <point x="120" y="275"/>
      <point x="94" y="325"/>
      <point x="101" y="391" type="curve"/>
      <point x="150" y="391" type="line"/>
      <point x="150" y="354"/>
      <point x="156" y="325"/>
      <point x="200" y="323" type="curve" smooth="yes"/>
      <point x="243" y="321"/>
      <point x="291" y="358"/>
      <point x="304" y="398" type="curve" smooth="yes"/>
      <point x="321" y="451"/>
      <point x="282" y="466"/>
      <point x="239" y="475" type="curve"/>
      <point x="250" y="507" type="line"/>
      <point x="318" y="499"/>
      <point x="378" y="469"/>
      <point x="354" y="390" type="curve" smooth="yes"/>
      <point x="334" y="324"/>
      <point x="262" y="275"/>
    </contour>
  </outline>
</glyph>
<glyph name="acute" format="2">
  <advance width="352"/>
  <unicode hex="00B4"/>
  <outline>
    <contour>
      <point x="453" y="656" type="line"/>
      <point x="239" y="512" type="line"/>
      <point x="201" y="543" type="line"/>
      <point x="389" y="699" type="line"/>
    </contour>
  </outline>
</glyph>
<glyph name="mu" format="2">
  <advance width="493"/>
  <unicode hex="00B5"/>
  <outline>
    <contour>
      <point x="252" y="460" type="line"/>
      <point x="147.146" y="157.087" type="line" smooth="yes"/>
      <point x="132.622" y="115.131"/>
      <point x="143.947" y="65.0924"/>
      <point x="200" y="66" type="curve" smooth="yes"/>
      <point x="268.439" y="67.1082"/>
      <point x="330.052" y="112.982"/>
      <point x="350.464" y="172.033" type="curve" smooth="yes"/>
      <point x="450" y="460" type="line"/>
      <point x="529" y="460" type="line"/>
      <point x="370" y="0" type="line"/>
      <point x="291" y="0" type="line"/>
      <point x="310.805" y="57.2984" type="line"/>
      <point x="272.198" y="18.3611"/>
      <point x="224.066" y="-9"/>
      <point x="167" y="-9" type="curve" smooth="yes"/>
      <point x="136.385" y="-9"/>
      <point x="113.592" y="-0.753873"/>
      <point x="97.2562" y="12.9623" type="curve"/>
      <point x="-18" y="-320" type="line"/>
      <point x="-92" y="-319" type="line"/>
      <point x="171" y="460" type="line"/>
    </contour>
  </outline>
</glyph>
<glyph name="cedilla" format="2">
  <advance width="329"/>
  <unicode hex="00B8"/>
  <outline>
    <contour>
      <point x="148" y="58" type="line"/>
      <point x="209" y="58" type="line"/>
      <point x="109" y="-52" type="line"/>
      <point x="111" y="-52"/>
      <point x="112" y="-52"/>
      <point x="114" y="-52" type="curve" smooth="yes"/>
      <point x="153" y="-59"/>
      <point x="172" y="-89"/>
      <point x="163" y="-128" type="curve" smooth="yes"/>
      <point x="150" y="-181"/>
      <point x="85" y="-220"/>
      <point x="33" y="-219" type="curve" smooth="yes"/>
      <point x="-1" y="-219"/>
      <point x="-21" y="-202"/>
      <point x="-43" y="-179" type="curve"/>
      <point x="-1" y="-143" type="line"/>
      <point x="12" y="-154"/>
      <point x="24" y="-166"/>
      <point x="43" y="-166" type="curve" smooth="yes"/>
      <point x="64" y="-166"/>
      <point x="102" y="-147"/>
      <point x="108" y="-125" type="curve" smooth="yes"/>
      <point x="114" y="-104"/>
      <point x="94" y="-91"/>
      <point x="76" y="-90" type="curve" smooth="yes"/>
      <point x="55" y="-88"/>
      <point x="32" y="-99"/>
      <point x="13" y="-106" type="curve"/>
    </contour>
  </outline>
</glyph>
<glyph name="guillemotright" format="2">
  <advance width="479"/>
  <unicode hex="00BB"/>
  <outline>
    <contour>
      <point x="238" y="252" type="line"/>
      <point x="162" y="447" type="line"/>
      <point x="222" y="490" type="line"/>
      <point x="325" y="249" type="line"/>
      <point x="69" y="21" type="line"/>
      <point x="32" y="68" type="line"/>
    </contour>
    <contour>
      <point x="389" y="252" type="line"/>
      <point x="313" y="447" type="line"/>
      <point x="373" y="490" type="line"/>
      <point x="475" y="249" type="line"/>
      <point x="219" y="21" type="line"/>
      <point x="183" y="68" type="line"/>
    </contour>
  </outline>
</glyph>
<glyph name="onehalf" format="2">
  <advance width="770"/>
  <unicode hex="00BD"/>
  <outline>
    <contour>
      <point x="762" y="698" type="line"/>
      <point x="828" y="697" type="line"/>
      <point x="103" y="0" type="line"/>
      <point x="37" y="0" type="line"/>
    </contour>
    <contour>
      <point x="183" y="613" type="line"/>
      <point x="199" y="664" type="line"/>
      <point x="352" y="701" type="line"/>
      <point x="205" y="275" type="line"/>
      <point x="154" y="275" type="line"/>
      <point x="276" y="636" type="line"/>
    </contour>
    <contour>
      <point x="410" y="4" type="line"/>
      <point x="665" y="214" type="line" smooth="yes"/>
      <point x="694" y="238"/>
      <point x="730" y="268"/>
      <point x="742" y="306" type="curve" smooth="yes"/>
      <point x="753" y="341"/>
      <point x="741" y="375"/>
      <point x="701" y="379" type="curve" smooth="yes"/>
      <point x="641" y="385"/>
      <point x="602" y="324"/>
      <point x="577" y="280" type="curve"/>
      <point x="526" y="280" type="line"/>
      <point x="560" y="353"/>
      <point x="617" y="430"/>
      <point x="707" y="428" type="curve" smooth="yes"/>
      <point x="778" y="427"/>
      <point x="811" y="365"/>
      <point x="791" y="301" type="curve" smooth="yes"/>
      <point x="776" y="254"/>
      <point x="739" y="217"/>
      <point x="702" y="186" type="curve" smooth="yes"/>
      <point x="531" y="51" type="line"/>
      <point x="706" y="49" type="line"/>
      <point x="690" y="3" type="line"/>
    </contour>
  </outline>
</glyph>
<glyph name="Aacute" format="2">
  <advance width="620"/>
  <unicode hex="00C1"/>
  <outline>
    <contour>
      <point x="156" y="212" type="line"/>
      <point x="209" y="289" type="line"/>
      <point x="504" y="290" type="line"/>
      <point x="506" y="210" type="line"/>
    </contour>
    <contour>
      <point x="446" y="542" type="line"/>
      <point x="239" y="264" type="line"/>
      <point x="226" y="246" type="line"/>
      <point x="42" y="0" type="line"/>
      <point x="-55" y="0" type="line"/>
      <point x="507" y="738" type="line"/>
      <point x="561" y="0" type="line"/>
      <point x="473" y="0" type="line"/>
      <point x="459" y="240" type="line"/>
      <point x="459" y="260" type="line"/>
    </contour>
    <contour>
      <point x="703" y="940" type="line"/>
      <point x="485" y="797" type="line"/>
      <point x="447" y="828" type="line"/>
      <point x="640" y="984" type="line"/>
    </contour>
  </outline>
</glyph>
<glyph name="Edieresis" format="2">
  <advance width="517"/>
  <unicode hex="00CB"/>
  <outline>
    <contour>
      <point x="66" y="0" type="line"/>
      <point x="92" y="80" type="line"/>
      <point x="428" y="80" type="line"/>
      <point x="401" y="0" type="line"/>
    </contour>
    <contour>
      <point x="278" y="621" type="line"/>
      <point x="304" y="700" type="line"/>
      <point x="639" y="700" type="line"/>
      <point x="612" y="620" type="line"/>
    </contour>
    <contour>
      <point x="182" y="341" type="line"/>
      <point x="209" y="420" type="line"/>
      <point x="525" y="420" type="line"/>
      <point x="498" y="340" type="line"/>
    </contour>
    <contour>
      <point x="257" y="699" type="line"/>
      <point x="343" y="700" type="line"/>
      <point x="101" y="0" type="line"/>
      <point x="22" y="0" type="line"/>
    </contour>
    <contour>
      <point x="548" y="847" type="curve" smooth="yes"/>
      <point x="554" y="871"/>
      <point x="593" y="902"/>
      <point x="618" y="899" type="curve" smooth="yes"/>
      <point x="645" y="896"/>
      <point x="660" y="869"/>
      <point x="654" y="843" type="curve" smooth="yes"/>
      <point x="648" y="819"/>
      <point x="610" y="788"/>
      <point x="585" y="791" type="curve" smooth="yes"/>
      <point x="558" y="794"/>
      <point x="542" y="821"/>
    </contour>
    <contour>
      <point x="360" y="847" type="curve" smooth="yes"/>
      <point x="366" y="871"/>
      <point x="404" y="902"/>
      <point x="429" y="899" type="curve" smooth="yes"/>
      <point x="456" y="896"/>
      <point x="472" y="869"/>
      <point x="466" y="843" type="curve" smooth="yes"/>
      <point x="460" y="819"/>
      <point x="422" y="788"/>
      <point x="397" y="791" type="curve" smooth="yes"/>
      <point x="370" y="794"/>
      <point x="354" y="821"/>
    </contour>
  </outline>
</glyph>
<glyph name="Eth" format="2">
  <advance width="639"/>
  <unicode hex="00D0"/>
  <outline>
    <contour>
      <point x="57" y="311" type="line"/>
      <point x="82" y="385" type="line"/>
      <point x="367" y="385" type="line"/>
      <point x="342" y="310" type="line"/>
    </contour>
    <contour>
      <point x="257" y="699" type="line"/>
      <point x="343" y="700" type="line"/>
      <point x="101" y="0" type="line"/>
      <point x="22" y="0" type="line"/>
    </contour>
    <contour>
      <point x="225" y="0" type="curve" smooth="yes"/>
      <point x="63" y="0" type="line"/>
      <point x="93" y="85" type="line"/>
      <point x="242" y="85" type="line" smooth="yes"/>
      <point x="399" y="91"/>
      <point x="534" y="204"/>
      <point x="586" y="350" type="curve" smooth="yes"/>
      <point x="633" y="481"/>
      <point x="585" y="608"/>
      <point x="434" y="615" type="curve" smooth="yes"/>
      <point x="273" y="615" type="line"/>
      <point x="303" y="700" type="line"/>
      <point x="451" y="700" type="line" smooth="yes"/>
      <point x="647" y="693"/>
      <point x="726" y="525"/>
      <point x="669" y="350" type="curve" smooth="yes"/>
      <point x="607" y="159"/>
      <point x="429" y="6"/>
    </contour>
  </outline>
</glyph>
<glyph name="Ntilde" format="2">
  <advance width="729"/>
  <unicode hex="00D1"/>
  <outline>
    <contour>
      <point x="758" y="700" type="line"/>
      <point x="841" y="700" type="line"/>
      <point x="589" y="-33" type="line"/>
      <point x="282" y="522" type="line"/>
      <point x="102" y="0" type="line"/>
      <point x="18" y="0" type="line"/>
      <point x="270" y="733" type="line"/>
      <point x="578" y="178" type="line"/>
    </contour>
    <contour>
      <point x="417" y="795" type="line"/>
      <point x="446" y="831"/>
      <point x="487" y="876"/>
      <point x="539" y="873" type="curve" smooth="yes"/>
      <point x="578" y="871"/>
      <point x="601" y="825"/>
      <point x="640" y="828" type="curve" smooth="yes"/>
      <point x="668" y="830"/>
      <point x="692" y="857"/>
      <point x="711" y="874" type="curve"/>
      <point x="744" y="829" type="line"/>
      <point x="714" y="798"/>
      <point x="671" y="756"/>
      <point x="623" y="760" type="curve" smooth="yes"/>
      <point x="585" y="763"/>
      <point x="565" y="807"/>
      <point x="526" y="805" type="curve" smooth="yes"/>
      <point x="496" y="803"/>
      <point x="476" y="777"/>
      <point x="459" y="756" type="curve"/>
    </contour>
  </outline>
</glyph>
<glyph name="Oacute" format="2">
  <advance width="743"/>
  <unicode hex="00D3"/>
  <outline>
    <contour>
      <point x="189" y="350" type="curve" smooth="yes"/>
      <point x="145" y="226"/>
      <point x="184" y="78"/>
      <point x="337" y="76" type="curve" smooth="yes"/>
      <point x="494" y="74"/>
      <point x="635" y="210"/>
      <point x="685" y="350" type="curve" smooth="yes"/>
      <point x="729" y="474"/>
      <point x="690" y="622"/>
      <point x="537" y="624" type="curve" smooth="yes"/>
      <point x="380" y="626"/>
      <point x="239" y="490"/>
    </contour>
    <contour>
      <point x="101" y="350" type="curve" smooth="yes"/>
      <point x="162" y="538"/>
      <point x="348" y="711"/>
      <point x="553" y="710" type="curve" smooth="yes"/>
      <point x="752" y="709"/>
      <point x="828" y="521"/>
      <point x="773" y="350" type="curve" smooth="yes"/>
      <point x="712" y="162"/>
      <point x="525" y="-11"/>
      <point x="320" y="-10" type="curve" smooth="yes"/>
      <point x="121" y="-9"/>
      <point x="46" y="179"/>
    </contour>
    <contour>
      <point x="746" y="915" type="line"/>
      <point x="528" y="772" type="line"/>
      <point x="490" y="803" type="line"/>
      <point x="683" y="959" type="line"/>
    </contour>
  </outline>
</glyph>
<glyph name="Odieresis" format="2">
  <advance width="743"/>
  <unicode hex="00D6"/>
  <outline>
    <contour>
      <point x="189" y="350" type="curve" smooth="yes"/>
      <point x="145" y="226"/>
      <point x="184" y="78"/>
      <point x="337" y="76" type="curve" smooth="yes"/>
      <point x="494" y="74"/>
      <point x="635" y="210"/>
      <point x="685" y="350" type="curve" smooth="yes"/>
      <point x="729" y="474"/>
      <point x="690" y="622"/>
      <point x="537" y="624" type="curve" smooth="yes"/>
      <point x="380" y="626"/>
      <point x="239" y="490"/>
    </contour>
    <contour>
      <point x="101" y="350" type="curve" smooth="yes"/>
      <point x="162" y="538"/>
      <point x="348" y="711"/>
      <point x="553" y="710" type="curve" smooth="yes"/>
      <point x="752" y="709"/>
      <point x="828" y="521"/>
      <point x="773" y="350" type="curve" smooth="yes"/>
      <point x="712" y="162"/>
      <point x="525" y="-11"/>
      <point x="320" y="-10" type="curve" smooth="yes"/>
      <point x="121" y="-9"/>
      <point x="46" y="179"/>
    </contour>
    <contour>
      <point x="640" y="827" type="curve" smooth="yes"/>
      <point x="646" y="851"/>
      <point x="684" y="882"/>
      <point x="709" y="879" type="curve" smooth="yes"/>
      <point x="736" y="876"/>
      <point x="752" y="849"/>
      <point x="746" y="823" type="curve" smooth="yes"/>
      <point x="740" y="799"/>
      <point x="702" y="768"/>
      <point x="677" y="771" type="curve" smooth="yes"/>
      <point x="650" y="774"/>
      <point x="634" y="801"/>
    </contour>
    <contour>
      <point x="452" y="827" type="curve" smooth="yes"/>
      <point x="458" y="851"/>
      <point x="496" y="882"/>
      <point x="521" y="879" type="curve" smooth="yes"/>
      <point x="548" y="876"/>
      <point x="564" y="849"/>
      <point x="558" y="823" type="curve" smooth="yes"/>
      <point x="552" y="799"/>
      <point x="514" y="768"/>
      <point x="489" y="771" type="curve" smooth="yes"/>
      <point x="462" y="774"/>
      <point x="446" y="801"/>
    </contour>
  </outline>
</glyph>
<glyph name="germandbls" format="2">
  <advance width="565"/>
  <unicode hex="00DF"/>
  <outline>
    <contour>
      <point x="342" y="-12" type="curve" smooth="yes"/>
      <point x="280" y="-12"/>
      <point x="231" y="16"/>
      <point x="195" y="56" type="curve"/>
      <point x="244" y="116" type="line"/>
      <point x="274" y="85"/>
      <point x="309" y="64"/>
      <point x="348" y="64" type="curve" smooth="yes"/>
      <point x="408" y="64"/>
      <point x="452" y="113"/>
      <point x="452" y="171" type="curve" smooth="yes"/>
      <point x="452" y="283"/>
      <point x="322" y="288"/>
      <point x="322" y="402" type="curve" smooth="yes"/>
      <point x="322" y="516"/>
      <point x="536" y="541"/>
      <point x="536" y="655" type="curve" smooth="yes"/>
      <point x="536" y="700"/>
      <point x="502" y="721"/>
      <point x="453" y="721" type="curve" smooth="yes"/>
      <point x="377" y="721"/>
      <point x="330.467" y="672.399"/>
      <point x="302" y="588" type="curve" smooth="yes"/>
      <point x="103" y="-2" type="line"/>
      <point x="22" y="-2" type="line"/>
      <point x="222" y="608" type="line" smooth="yes"/>
      <point x="253.973" y="705.517"/>
      <point x="330" y="794"/>
      <point x="466" y="794" type="curve" smooth="yes"/>
      <point x="554" y="794"/>
      <point x="620" y="738"/>
      <point x="620" y="662" type="curve" smooth="yes"/>
      <point x="620" y="486"/>
      <point x="410" y="486"/>
      <point x="410" y="402" type="curve" smooth="yes"/>
      <point x="410" y="332"/>
      <point x="536" y="326"/>
      <point x="536" y="182" type="curve" smooth="yes"/>
      <point x="536" y="74"/>
      <point x="451" y="-12"/>
    </contour>
  </outline>
</glyph>
<glyph name="agrave" format="2">
  <advance width="456"/>
  <unicode hex="00E0"/>
  <outline>
    <contour>
      <point x="96" y="135" type="curve" smooth="yes"/>
      <point x="80" y="87"/>
      <point x="113" y="64"/>
      <point x="157" y="62" type="curve" smooth="yes"/>
      <point x="239" y="59"/>
      <point x="294" y="113"/>
      <point x="332" y="179" type="curve"/>
      <point x="331" y="128" type="line"/>
      <point x="290" y="48"/>
      <point x="219" y="-10"/>
      <point x="125" y="-9" type="curve" smooth="yes"/>
      <point x="46" y="-8"/>
      <point x="-9" y="46"/>
      <point x="15" y="126" type="curve" smooth="yes"/>
      <point x="44" y="225"/>
      <point x="151" y="286"/>
      <point x="251" y="285" type="curve" smooth="yes"/>
      <point x="305" y="285"/>
      <point x="346" y="265"/>
      <point x="380" y="224" type="curve"/>
      <point x="365" y="179" type="line"/>
      <point x="329" y="208"/>
      <point x="291" y="225"/>
      <point x="244" y="224" type="curve" smooth="yes"/>
      <point x="186" y="223"/>
      <point x="116" y="195"/>
    </contour>
    <contour>
      <point x="173" y="352" type="curve"/>
      <point x="154" y="416" type="line"/>
      <point x="210" y="446"/>
      <point x="270" y="470"/>
      <point x="334" y="469" type="curve" smooth="yes"/>
      <point x="418" y="468"/>
      <point x="482" y="419"/>
      <point x="459" y="330" type="curve"/>
      <point x="346" y="0" type="line"/>
      <point x="267" y="0" type="line"/>
      <point x="384" y="330" type="line"/>
      <point x="385" y="374"/>
      <point x="367" y="396"/>
      <point x="320" y="398" type="curve" smooth="yes"/>
      <point x="268" y="400"/>
      <point x="218" y="375"/>
    </contour>
    <contour>
      <point x="259" y="682" type="line"/>
      <point x="342" y="720" type="line"/>
      <point x="433" y="558" type="line"/>
      <point x="383" y="530" type="line"/>
    </contour>
  </outline>
</glyph>
<glyph name="iacute" format="2">
  <advance width="244"/>
  <unicode hex="00ED"/>
  <outline>
    <contour>
      <point x="184" y="459" type="line"/>
      <point x="266" y="460" type="line"/>
      <point x="105" y="0" type="line"/>
      <point x="31" y="0" type="line"/>
    </contour>
    <contour>
      <point x="459" y="695" type="line"/>
      <point x="241" y="552" type="line"/>
      <point x="203" y="583" type="line"/>
      <point x="397" y="739" type="line"/>
    </contour>
  </outline>
</glyph>
<glyph name="icircumflex" format="2">
  <advance width="244"/>
  <unicode hex="00EE"/>
  <outline>
    <contour>
      <point x="184" y="459" type="line"/>
      <point x="266" y="460" type="line"/>
      <point x="105" y="0" type="line"/>
      <point x="31" y="0" type="line"/>
    </contour>
    <contour>
      <point x="290" y="634" type="line"/>
      <point x="152" y="541" type="line"/>
      <point x="114" y="583" type="line"/>
      <point x="310" y="720" type="line"/>
      <point x="418" y="578" type="line"/>
      <point x="361" y="541" type="line"/>
    </contour>
  </outline>
</glyph>
<glyph name="ntilde" format="2">
  <advance width="493"/>
  <unicode hex="00F1"/>
  <outline>
    <contour>
      <point x="251" y="460" type="line"/>
      <point x="92" y="0" type="line"/>
      <point x="13" y="0" type="line"/>
      <point x="173" y="460" type="line"/>
    </contour>
    <contour>
      <point x="390" y="280" type="line" smooth="yes"/>
      <point x="405" y="329"/>
      <point x="409" y="391"/>
      <point x="342" y="394" type="curve" smooth="yes"/>
      <point x="271" y="397"/>
      <point x="220" y="337"/>
      <point x="188" y="282" type="curve"/>
      <point x="152" y="282" type="line"/>
      <point x="192" y="371"/>
      <point x="267" y="469"/>
      <point x="375" y="469" type="curve" smooth="yes"/>
      <point x="480" y="469"/>
      <point x="493" y="372"/>
      <point x="469" y="290" type="curve" smooth="yes"/>
      <point x="369" y="0" type="line"/>
      <point x="294" y="0" type="line"/>
    </contour>
    <contour>
      <point x="230" y="570" type="line"/>
      <point x="259" y="606"/>
      <point x="300" y="651"/>
      <point x="352" y="648" type="curve" smooth="yes"/>
      <point x="391" y="646"/>
      <point x="414" y="600"/>
      <point x="453" y="603" type="curve" smooth="yes"/>
      <point x="481" y="605"/>
      <point x="505" y="632"/>
      <point x="524" y="649" type="curve"/>
      <point x="557" y="604" type="line"/>
      <point x="527" y="573"/>
      <point x="484" y="531"/>
      <point x="436" y="535" type="curve" smooth="yes"/>
      <point x="398" y="538"/>
      <point x="378" y="582"/>
      <point x="339" y="580" type="curve" smooth="yes"/>
      <point x="309" y="578"/>
      <point x="289" y="552"/>
      <point x="272" y="531" type="curve"/>
    </contour>
  </outline>
</glyph>
<glyph name="ydieresis" format="2">
  <advance width="413"/>
  <unicode hex="00FF"/>
  <outline>
    <contour>
      <point x="522" y="459" type="line"/>
      <point x="5" y="-219" type="line"/>
      <point x="-87" y="-219" type="line"/>
      <point x="135" y="70" type="line"/>
      <point x="104" y="460" type="line"/>
      <point x="192" y="460" type="line"/>
      <point x="207" y="100" type="line"/>
      <point x="175" y="105" type="line"/>
      <point x="430" y="459" type="line"/>
    </contour>
    <contour>
      <point x="394" y="587" type="curve" smooth="yes"/>
      <point x="400" y="611"/>
      <point x="438" y="642"/>
      <point x="463" y="639" type="curve" smooth="yes"/>
      <point x="490" y="636"/>
      <point x="505" y="609"/>
      <point x="499" y="583" type="curve" smooth="yes"/>
      <point x="493" y="559"/>
      <point x="455" y="528"/>
      <point x="430" y="531" type="curve" smooth="yes"/>
      <point x="403" y="534"/>
      <point x="388" y="561"/>
    </contour>
    <contour>
      <point x="206" y="587" type="curve" smooth="yes"/>
      <point x="212" y="611"/>
      <point x="250" y="642"/>
      <point x="275" y="639" type="curve" smooth="yes"/>
      <point x="302" y="636"/>
      <point x="317" y="609"/>
      <point x="311" y="583" type="curve" smooth="yes"/>
      <point x="305" y="559"/>
      <point x="267" y="528"/>
      <point x="242" y="531" type="curve" smooth="yes"/>
      <point x="215" y="534"/>
      <point x="200" y="561"/>
    </contour>
  </outline>
</glyph>
<glyph name="Amacron" format="2">
  <advance width="620"/>
  <unicode hex="0100"/>
  <outline>
    <contour>
      <point x="156" y="212" type="line"/>
      <point x="209" y="289" type="line"/>
      <point x="504" y="290" type="line"/>
      <point x="506" y="210" type="line"/>
    </contour>
    <contour>
      <point x="446" y="542" type="line"/>
      <point x="239" y="264" type="line"/>
      <point x="226" y="246" type="line"/>
      <point x="42" y="0" type="line"/>
      <point x="-55" y="0" type="line"/>
      <point x="507" y="738" type="line"/>
      <point x="561" y="0" type="line"/>
      <point x="473" y="0" type="line"/>
      <point x="459" y="240" type="line"/>
      <point x="459" y="260" type="line"/>
    </contour>
    <contour>
      <point x="364" y="796" type="line"/>
      <point x="388" y="870" type="line"/>
      <point x="721" y="870" type="line"/>
      <point x="696" y="795" type="line"/>
    </contour>
  </outline>
</glyph>
<glyph name="aogonek" format="2">
  <advance width="456"/>
  <unicode hex="0105"/>
  <outline>
    <contour>
      <point x="96" y="135" type="curve" smooth="yes"/>
      <point x="82" y="89"/>
      <point x="115" y="64"/>
      <point x="157" y="62" type="curve" smooth="yes"/>
      <point x="238" y="58"/>
      <point x="294" y="114"/>
      <point x="332" y="179" type="curve"/>
      <point x="331" y="128" type="line"/>
      <point x="290" y="48"/>
      <point x="219" y="-10"/>
      <point x="125" y="-9" type="curve" smooth="yes"/>
      <point x="43" y="-8"/>
      <point x="-7" y="53"/>
      <point x="17" y="133" type="curve" smooth="yes"/>
      <point x="47" y="231"/>
      <point x="153" y="286"/>
      <point x="251" y="285" type="curve" smooth="yes"/>
      <point x="305" y="284"/>
      <point x="346" y="265"/>
      <point x="380" y="224" type="curve"/>
      <point x="365" y="179" type="line"/>
      <point x="329" y="208"/>
      <point x="291" y="225"/>
      <point x="244" y="224" type="curve" smooth="yes"/>
      <point x="186" y="223"/>
      <point x="114" y="196"/>
    </contour>
    <contour>
      <point x="173" y="352" type="curve"/>
      <point x="154" y="416" type="line"/>
      <point x="210" y="446"/>
      <point x="270" y="470"/>
      <point x="334" y="469" type="curve" smooth="yes"/>
      <point x="418" y="468"/>
      <point x="482" y="419"/>
      <point x="459" y="330" type="curve"/>
      <point x="346" y="0" type="line"/>
      <point x="267" y="0" type="line"/>
      <point x="384" y="330" type="line"/>
      <point x="385" y="374"/>
      <point x="367" y="396"/>
      <point x="320" y="398" type="curve" smooth="yes"/>
      <point x="268" y="400"/>
      <point x="218" y="375"/>
    </contour>
    <contour>
      <point x="304" y="-130" type="curve"/>
      <point x="321" y="-183" type="line"/>
      <point x="292" y="-202"/>
      <point x="263" y="-218"/>
      <point x="228" y="-219" type="curve" smooth="yes"/>
      <point x="168" y="-221"/>
      <point x="122" y="-181"/>
      <point x="140" y="-119" type="curve" smooth="yes"/>
      <point x="162" y="-46"/>
      <point x="249" y="-6"/>
      <point x="312" y="24" type="curve"/>
      <point x="347" y="0" type="line"/>
      <point x="306" y="-23"/>
      <point x="238" y="-49"/>
      <point x="224" y="-100" type="curve" smooth="yes"/>
      <point x="218" y="-122"/>
      <point x="224" y="-145"/>
      <point x="249" y="-149" type="curve" smooth="yes"/>
      <point x="267" y="-152"/>
      <point x="289" y="-138"/>
    </contour>
  </outline>
</glyph>
<glyph name="Cdotaccent" format="2">
  <advance width="644"/>
  <unicode hex="010A"/>
  <outline>
    <contour>
      <point x="189" y="350" type="curve" smooth="yes"/>
      <point x="146" y="229"/>
      <point x="182" y="79"/>
      <point x="332" y="76" type="curve" smooth="yes"/>
      <point x="426" y="74"/>
      <point x="512" y="123"/>
      <point x="585" y="177" type="curve"/>
      <point x="550" y="66" type="line"/>
      <point x="479" y="20"/>
      <point x="401" y="-11"/>
      <point x="315" y="-10" type="curve" smooth="yes"/>
      <point x="118" y="-8"/>
      <point x="46" y="182"/>
      <point x="101" y="350" type="curve" smooth="yes"/>
      <point x="162" y="537"/>
      <point x="345" y="708"/>
      <point x="549" y="710" type="curve" smooth="yes"/>
      <point x="625" y="711"/>
      <point x="687" y="686"/>
      <point x="741" y="632" type="curve"/>
      <point x="705" y="521" type="line"/>
      <point x="668" y="589"/>
      <point x="610" y="624"/>
      <point x="532" y="624" type="curve" smooth="yes"/>
      <point x="378" y="623"/>
      <point x="239" y="489"/>
    </contour>
    <contour>
      <point x="542" y="827" type="curve" smooth="yes"/>
      <point x="548" y="851"/>
      <point x="586" y="882"/>
      <point x="611" y="879" type="curve" smooth="yes"/>
      <point x="638" y="876"/>
      <point x="653" y="849"/>
      <point x="647" y="823" type="curve" smooth="yes"/>
      <point x="641" y="799"/>
      <point x="603" y="768"/>
      <point x="578" y="771" type="curve" smooth="yes"/>
      <point x="551" y="774"/>
      <point x="536" y="801"/>
    </contour>
  </outline>
</glyph>
<glyph name="Dcaron" format="2">
  <advance width="639"/>
  <unicode hex="010E"/>
  <outline>
    <contour>
      <point x="257" y="699" type="line"/>
      <point x="343" y="700" type="line"/>
      <point x="101" y="0" type="line"/>
      <point x="22" y="0" type="line"/>
    </contour>
    <contour>
      <point x="225" y="0" type="curve" smooth="yes"/>
      <point x="63" y="0" type="line"/>
      <point x="93" y="85" type="line"/>
      <point x="242" y="85" type="line" smooth="yes"/>
      <point x="399" y="91"/>
      <point x="534" y="204"/>
      <point x="586" y="350" type="curve" smooth="yes"/>
      <point x="633" y="481"/>
      <point x="585" y="608"/>
      <point x="434" y="615" type="curve" smooth="yes"/>
      <point x="273" y="615" type="line"/>
      <point x="303" y="700" type="line"/>
      <point x="451" y="700" type="line" smooth="yes"/>
      <point x="647" y="693"/>
      <point x="726" y="525"/>
      <point x="669" y="350" type="curve" smooth="yes"/>
      <point x="607" y="159"/>
      <point x="429" y="6"/>
    </contour>
    <contour>
      <point x="543" y="856" type="line"/>
      <point x="680" y="949" type="line"/>
      <point x="719" y="907" type="line"/>
      <point x="523" y="770" type="line"/>
      <point x="415" y="912" type="line"/>
      <point x="472" y="949" type="line"/>
    </contour>
  </outline>
</glyph>
<glyph name="ebreve" format="2">
  <advance width="484"/>
  <unicode hex="0115"/>
  <outline>
    <contour>
      <point x="98" y="211" type="line"/>
      <point x="120" y="277" type="line"/>
      <point x="408" y="278" type="line"/>
      <point x="418" y="339"/>
      <point x="409" y="397"/>
      <point x="335" y="399" type="curve" smooth="yes"/>
      <point x="249" y="401"/>
      <point x="181" y="332"/>
      <point x="147" y="260" type="curve" smooth="yes"/>
      <point x="134" y="230" type="line"/>
      <point x="108" y="158"/>
      <point x="117" y="69"/>
      <point x="210" y="66" type="curve" smooth="yes"/>
      <point x="274" y="64"/>
      <point x="329" y="107"/>
      <point x="375" y="147" type="curve"/>
      <point x="428" y="104" type="line"/>
      <point x="361" y="41"/>
      <point x="281" y="-11"/>
      <point x="186" y="-9" type="curve" smooth="yes"/>
      <point x="54" y="-6"/>
      <point x="22" y="122"/>
      <point x="55" y="230" type="curve" smooth="yes"/>
      <point x="60" y="247"/>
      <point x="67" y="263"/>
      <point x="75" y="279" type="curve" smooth="yes"/>
      <point x="125" y="380"/>
      <point x="230" y="470"/>
      <point x="348" y="469" type="curve" smooth="yes"/>
      <point x="484" y="468"/>
      <point x="510" y="344"/>
      <point x="479" y="234" type="curve" smooth="yes"/>
      <point x="477" y="226"/>
      <point x="475" y="219"/>
      <point x="472" y="211" type="curve"/>
    </contour>
    <contour>
      <point x="272" y="670" type="curve"/>
      <point x="339" y="669" type="line"/>
      <point x="336" y="629"/>
      <point x="344" y="597"/>
      <point x="391" y="596" type="curve" smooth="yes"/>
      <point x="442" y="595"/>
      <point x="474" y="631"/>
      <point x="501" y="669" type="curve"/>
      <point x="572" y="668" type="line"/>
      <point x="534" y="593"/>
      <point x="468" y="531"/>
      <point x="379" y="531" type="curve" smooth="yes"/>
      <point x="292" y="531"/>
      <point x="261" y="592"/>
    </contour>
  </outline>
</glyph>
<glyph name="eogonek" format="2">
  <advance width="484"/>
  <unicode hex="0119"/>
  <outline>
    <contour>
      <point x="98" y="211" type="line"/>
      <point x="120" y="277" type="line"/>
      <point x="408" y="278" type="line"/>
      <point x="418" y="339"/>
      <point x="409" y="397"/>
      <point x="335" y="399" type="curve" smooth="yes"/>
      <point x="249" y="401"/>
      <point x="181" y="332"/>
      <point x="147" y="260" type="curve" smooth="yes"/>
      <point x="134" y="230" type="line"/>
      <point x="108" y="158"/>
      <point x="117" y="69"/>
      <point x="210" y="66" type="curve" smooth="yes"/>
      <point x="274" y="64"/>
      <point x="329" y="107"/>
      <point x="375" y="147" type="curve"/>
      <point x="428" y="104" type="line"/>
      <point x="355.0" y="77.0"/>
      <point x="281" y="-11"/>
      <point x="186" y="-9" type="curve" smooth="yes"/>
      <point x="54" y="-6"/>
      <point x="22" y="122"/>
      <point x="55" y="230" type="curve" smooth="yes"/>
      <point x="60" y="247"/>
      <point x="67" y="263"/>
      <point x="75" y="279" type="curve" smooth="yes"/>
      <point x="125" y="380"/>
      <point x="230" y="470"/>
      <point x="348" y="469" type="curve" smooth="yes"/>
      <point x="484" y="468"/>
      <point x="510" y="344"/>
      <point x="479" y="234" type="curve" smooth="yes"/>
      <point x="477" y="226"/>
      <point x="475" y="219"/>
      <point x="472" y="211" type="curve"/>
    </contour>
    <contour>
      <point x="356.0" y="-65.0" type="curve"/>
      <point x="373.0" y="-118.0" type="line"/>
      <point x="344.0" y="-137.0"/>
      <point x="315.0" y="-153.0"/>
      <point x="280.0" y="-154.0" type="curve" smooth="yes"/>
      <point x="220.0" y="-156.0"/>
      <point x="175.0" y="-116.0"/>
      <point x="193.0" y="-54.0" type="curve" smooth="yes"/>
      <point x="215.0" y="19.0"/>
      <point x="322.0" y="82.0"/>
      <point x="385.0" y="112.0" type="curve"/>
      <point x="428.0" y="104.0" type="line"/>
      <point x="344.0" y="33.0"/>
      <point x="290.0" y="15.0"/>
      <point x="276.0" y="-35.0" type="curve" smooth="yes"/>
      <point x="270.0" y="-57.0"/>
      <point x="276.0" y="-80.0"/>
      <point x="301.0" y="-84.0" type="curve" smooth="yes"/>
      <point x="319.0" y="-87.0"/>
      <point x="341.0" y="-73.0"/>
    </contour>
  </outline>
</glyph>
<glyph name="gcircumflex" format="2">
  <advance width="536"/>
  <unicode hex="011D"/>
  <outline>
    <contour>
      <point x="-25" y="-30" type="curve"/>
      <point x="52" y="-31" type="line"/>
      <point x="42" y="-100"/>
      <point x="66" y="-153"/>
      <point x="143" y="-154" type="curve" smooth="yes"/>
      <point x="237" y="-156"/>
      <point x="310" y="-70"/>
      <point x="342" y="10" type="curve" smooth="yes"/>
      <point x="497" y="460" type="line"/>
      <point x="576" y="460" type="line"/>
      <point x="422" y="10" type="line" smooth="yes"/>
      <point x="377" y="-113"/>
      <point x="268" y="-228"/>
      <point x="129" y="-229" type="curve" smooth="yes"/>
      <point x="7" y="-230"/>
      <point x="-48" y="-143"/>
    </contour>
    <contour>
      <point x="55" y="230" type="curve" smooth="yes"/>
      <point x="94" y="352"/>
      <point x="213" y="472"/>
      <point x="348" y="470" type="curve" smooth="yes"/>
      <point x="480" y="468"/>
      <point x="487" y="328"/>
      <point x="455" y="230" type="curve" smooth="yes"/>
      <point x="419" y="117"/>
      <point x="326" y="-8"/>
      <point x="196" y="-9" type="curve" smooth="yes"/>
      <point x="62" y="-10"/>
      <point x="19" y="119"/>
    </contour>
    <contour>
      <point x="134" y="230" type="curve" smooth="yes"/>
      <point x="107" y="157"/>
      <point x="127" y="66"/>
      <point x="219" y="66" type="curve" smooth="yes"/>
      <point x="309" y="66"/>
      <point x="390" y="151"/>
      <point x="419" y="230" type="curve" smooth="yes"/>
      <point x="443" y="298"/>
      <point x="430" y="390"/>
      <point x="343" y="394" type="curve" smooth="yes"/>
      <point x="249" y="398"/>
      <point x="164" y="312"/>
    </contour>
    <contour>
      <point x="412" y="624" type="line"/>
      <point x="274" y="531" type="line"/>
      <point x="236" y="573" type="line"/>
      <point x="432" y="710" type="line"/>
      <point x="540" y="568" type="line"/>
      <point x="482" y="531" type="line"/>
    </contour>
  </outline>
</glyph>
<glyph name="gdotaccent" format="2">
  <advance width="536"/>
  <unicode hex="0121"/>
  <outline>
    <contour>
      <point x="-25" y="-30" type="curve"/>
      <point x="52" y="-31" type="line"/>
      <point x="42" y="-100"/>
      <point x="66" y="-153"/>
      <point x="143" y="-154" type="curve" smooth="yes"/>
      <point x="237" y="-156"/>
      <point x="310" y="-70"/>
      <point x="342" y="10" type="curve" smooth="yes"/>
      <point x="497" y="460" type="line"/>
      <point x="576" y="460" type="line"/>
      <point x="422" y="10" type="line" smooth="yes"/>
      <point x="377" y="-113"/>
      <point x="268" y="-228"/>
      <point x="129" y="-229" type="curve" smooth="yes"/>
      <point x="7" y="-230"/>
      <point x="-48" y="-143"/>
    </contour>
    <contour>
      <point x="55" y="230" type="curve" smooth="yes"/>
      <point x="94" y="352"/>
      <point x="213" y="472"/>
      <point x="348" y="470" type="curve" smooth="yes"/>
      <point x="480" y="468"/>
      <point x="487" y="328"/>
      <point x="455" y="230" type="curve" smooth="yes"/>
      <point x="419" y="117"/>
      <point x="326" y="-8"/>
      <point x="196" y="-9" type="curve" smooth="yes"/>
      <point x="62" y="-10"/>
      <point x="19" y="119"/>
    </contour>
    <contour>
      <point x="134" y="230" type="curve" smooth="yes"/>
      <point x="107" y="157"/>
      <point x="127" y="66"/>
      <point x="219" y="66" type="curve" smooth="yes"/>
      <point x="309" y="66"/>
      <point x="390" y="151"/>
      <point x="419" y="230" type="curve" smooth="yes"/>
      <point x="443" y="298"/>
      <point x="430" y="390"/>
      <point x="343" y="394" type="curve" smooth="yes"/>
      <point x="249" y="398"/>
      <point x="164" y="312"/>
    </contour>
    <contour>
      <point x="373" y="627" type="curve" smooth="yes"/>
      <point x="379" y="651"/>
      <point x="417" y="682"/>
      <point x="442" y="679" type="curve" smooth="yes"/>
      <point x="469" y="676"/>
      <point x="484" y="649"/>
      <point x="478" y="623" type="curve" smooth="yes"/>
      <point x="472" y="599"/>
      <point x="434" y="568"/>
      <point x="409" y="571" type="curve" smooth="yes"/>
      <point x="382" y="574"/>
      <point x="367" y="601"/>
    </contour>
  </outline>
</glyph>
<glyph name="uni0123" format="2">
  <advance width="536"/>
  <unicode hex="0123"/>
  <outline>
    <contour>
      <point x="-26" y="-30" type="curve"/>
      <point x="51" y="-31" type="line"/>
      <point x="41" y="-99"/>
      <point x="63" y="-152"/>
      <point x="140" y="-154" type="curve" smooth="yes"/>
      <point x="234" y="-156"/>
      <point x="309" y="-70"/>
      <point x="341" y="10" type="curve" smooth="yes"/>
      <point x="496" y="460" type="line"/>
      <point x="577" y="460" type="line"/>
      <point x="424" y="10" type="line" smooth="yes"/>
      <point x="379" y="-113"/>
      <point x="271" y="-228"/>
      <point x="132" y="-229" type="curve" smooth="yes"/>
      <point x="10" y="-230"/>
      <point x="-47" y="-144"/>
    </contour>
    <contour>
      <point x="54" y="230" type="curve" smooth="yes"/>
      <point x="92" y="352"/>
      <point x="210" y="472"/>
      <point x="345" y="470" type="curve" smooth="yes"/>
      <point x="477" y="468"/>
      <point x="487" y="330"/>
      <point x="456" y="230" type="curve" smooth="yes"/>
      <point x="421" y="117"/>
      <point x="329" y="-8"/>
      <point x="199" y="-9" type="curve" smooth="yes"/>
      <point x="65" y="-11"/>
      <point x="19" y="118"/>
    </contour>
    <contour>
      <point x="135" y="230" type="curve" smooth="yes"/>
      <point x="108" y="158"/>
      <point x="124" y="66"/>
      <point x="216" y="66" type="curve" smooth="yes"/>
      <point x="306" y="66"/>
      <point x="388" y="151"/>
      <point x="418" y="230" type="curve" smooth="yes"/>
      <point x="443" y="296"/>
      <point x="433" y="390"/>
      <point x="346" y="394" type="curve" smooth="yes"/>
      <point x="252" y="399"/>
      <point x="166" y="312"/>
    </contour>
    <contour>
      <point x="405" y="547" type="line"/>
      <point x="339" y="595" type="line"/>
      <point x="553" y="816" type="line"/>
      <point x="602" y="784" type="line"/>
    </contour>
  </outline>
</glyph>
<glyph name="imacron" format="2">
  <advance width="244"/>
  <unicode hex="012B"/>
  <outline>
    <contour>
      <point x="184" y="459" type="line"/>
      <point x="266" y="460" type="line"/>
      <point x="105" y="0" type="line"/>
      <point x="31" y="0" type="line"/>
    </contour>
    <contour>
      <point x="85" y="531" type="line"/>
      <point x="110" y="605" type="line"/>
      <point x="442" y="605" type="line"/>
      <point x="417" y="530" type="line"/>
    </contour>
  </outline>
</glyph>
<glyph name="Iogonek" format="2">
  <advance width="230"/>
  <unicode hex="012E"/>
  <outline>
    <contour>
      <point x="257" y="699" type="line"/>
      <point x="343" y="700" type="line"/>
      <point x="101" y="0" type="line"/>
      <point x="22" y="0" type="line"/>
    </contour>
    <contour>
      <point x="59" y="-130" type="curve"/>
      <point x="76" y="-183" type="line"/>
      <point x="47" y="-202"/>
      <point x="18" y="-218"/>
      <point x="-17" y="-219" type="curve" smooth="yes"/>
      <point x="-77" y="-221"/>
      <point x="-122" y="-181"/>
      <point x="-104" y="-119" type="curve" smooth="yes"/>
      <point x="-82" y="-46"/>
      <point x="4" y="-6"/>
      <point x="67" y="24" type="curve"/>
      <point x="103" y="0" type="line"/>
      <point x="62" y="-23"/>
      <point x="-7" y="-49"/>
      <point x="-21" y="-100" type="curve" smooth="yes"/>
      <point x="-27" y="-122"/>
      <point x="-21" y="-145"/>
      <point x="4" y="-149" type="curve" smooth="yes"/>
      <point x="22" y="-152"/>
      <point x="44" y="-138"/>
    </contour>
  </outline>
</glyph>
<glyph name="jcircumflex" format="2">
  <advance width="235"/>
  <unicode hex="0135"/>
  <outline>
    <contour>
      <point x="-113" y="-115" type="line"/>
      <point x="-104" y="-127"/>
      <point x="-95" y="-141"/>
      <point x="-77" y="-141" type="curve" smooth="yes"/>
      <point x="-34" y="-140"/>
      <point x="-11" y="-83"/>
      <point x="2" y="-50" type="curve" smooth="yes"/>
      <point x="177" y="460" type="line"/>
      <point x="256" y="460" type="line"/>
      <point x="79" y="-61" type="line" smooth="yes"/>
      <point x="51" y="-137"/>
      <point x="-7" y="-223"/>
      <point x="-99" y="-219" type="curve" smooth="yes"/>
      <point x="-133" y="-218"/>
      <point x="-153" y="-201"/>
      <point x="-174" y="-177" type="curve"/>
    </contour>
    <contour>
      <point x="277" y="624" type="line"/>
      <point x="140" y="531" type="line"/>
      <point x="101" y="573" type="line"/>
      <point x="297" y="710" type="line"/>
      <point x="405" y="568" type="line"/>
      <point x="348" y="531" type="line"/>
    </contour>
  </outline>
</glyph>
<glyph name="uni0137" format="2">
  <advance width="413"/>
  <unicode hex="0137"/>
  <outline>
    <contour>
      <point x="275" y="779" type="line"/>
      <point x="357" y="780" type="line"/>
      <point x="87" y="0" type="line"/>
      <point x="12" y="0" type="line"/>
    </contour>
    <contour>
      <point x="399" y="459" type="line"/>
      <point x="504" y="459" type="line"/>
      <point x="244" y="266" type="line"/>
      <point x="357" y="0" type="line"/>
      <point x="268" y="0" type="line"/>
      <point x="151" y="275" type="line"/>
    </contour>
    <contour>
      <point x="165" y="-62" type="line"/>
      <point x="238" y="-94" type="line"/>
      <point x="48" y="-338" type="line"/>
      <point x="-4" y="-317" type="line"/>
    </contour>
  </outline>
</glyph>
<glyph name="lacute" format="2">
  <advance width="216"/>
  <unicode hex="013A"/>
  <outline>
    <contour>
      <point x="280" y="779" type="line"/>
      <point x="361" y="780" type="line"/>
      <point x="91" y="0" type="line"/>
      <point x="17" y="0" type="line"/>
    </contour>
    <contour>
      <point x="516" y="985" type="line"/>
      <point x="298" y="842" type="line"/>
      <point x="260" y="873" type="line"/>
      <point x="453" y="1029" type="line"/>
    </contour>
  </outline>
</glyph>
<glyph name="Lcaron" format="2">
  <advance width="423"/>
  <unicode hex="013D"/>
  <outline>
    <contour>
      <point x="259" y="700" type="line"/>
      <point x="343" y="700" type="line"/>
      <point x="130" y="80" type="line"/>
      <point x="389" y="80" type="line"/>
      <point x="361" y="0" type="line"/>
      <point x="19" y="0" type="line"/>
    </contour>
    <contour>
      <point x="493" y="708" type="line"/>
      <point x="565" y="676" type="line"/>
      <point x="376" y="432" type="line"/>
      <point x="324" y="453" type="line"/>
    </contour>
  </outline>
</glyph>
<glyph name="Nacute" format="2">
  <advance width="729"/>
  <unicode hex="0143"/>
  <outline>
    <contour>
      <point x="758" y="700" type="line"/>
      <point x="841" y="700" type="line"/>
      <point x="589" y="-33" type="line"/>
      <point x="282" y="522" type="line"/>
      <point x="102" y="0" type="line"/>
      <point x="18" y="0" type="line"/>
      <point x="270" y="733" type="line"/>
      <point x="578" y="178" type="line"/>
    </contour>
    <contour>
      <point x="783" y="900" type="line"/>
      <point x="565" y="757" type="line"/>
      <point x="527" y="788" type="line"/>
      <point x="721" y="944" type="line"/>
    </contour>
  </outline>
</glyph>
<glyph name="Ncaron" format="2">
  <advance width="729"/>
  <unicode hex="0147"/>
  <outline>
    <contour>
      <point x="617" y="881" type="line"/>
      <point x="755" y="974" type="line"/>
      <point x="793" y="932" type="line"/>
      <point x="597" y="795" type="line"/>
      <point x="489" y="937" type="line"/>
      <point x="547" y="974" type="line"/>
    </contour>
    <contour>
      <point x="758" y="700" type="line"/>
      <point x="841" y="700" type="line"/>
      <point x="589" y="-33" type="line"/>
      <point x="282" y="522" type="line"/>
      <point x="102" y="0" type="line"/>
      <point x="18" y="0" type="line"/>
      <point x="270" y="733" type="line"/>
      <point x="578" y="178" type="line"/>
    </contour>
  </outline>
</glyph>
<glyph name="napostrophe" format="2">
  <advance width="597"/>
  <unicode hex="0149"/>
  <outline>
    <contour>
      <point x="355" y="460" type="line"/>
      <point x="196" y="0" type="line"/>
      <point x="117" y="0" type="line"/>
      <point x="276" y="460" type="line"/>
    </contour>
    <contour>
      <point x="493" y="280" type="line" smooth="yes"/>
      <point x="508" y="329"/>
      <point x="513" y="391"/>
      <point x="446" y="394" type="curve" smooth="yes"/>
      <point x="375" y="397"/>
      <point x="324" y="337"/>
      <point x="292" y="282" type="curve"/>
      <point x="255" y="282" type="line"/>
      <point x="295" y="371"/>
      <point x="371" y="469"/>
      <point x="479" y="469" type="curve" smooth="yes"/>
      <point x="584" y="469"/>
      <point x="597" y="372"/>
      <point x="573" y="290" type="curve" smooth="yes"/>
      <point x="472" y="0" type="line"/>
      <point x="398" y="0" type="line"/>
    </contour>
    <contour>
      <point x="304" y="699" type="line"/>
      <point x="402" y="699" type="line"/>
      <point x="226" y="472" type="line"/>
      <point x="171" y="472" type="line"/>
    </contour>
  </outline>
</glyph>
<glyph name="eng" format="2">
  <advance width="525"/>
  <unicode hex="014B"/>
  <outline>
    <contour>
      <point x="153" y="-220" type="curve" smooth="yes"/>
      <point x="117" y="-220"/>
      <point x="89" y="-205"/>
      <point x="79" y="-180" type="curve"/>
      <point x="145" y="-114" type="line"/>
      <point x="150" y="-132"/>
      <point x="163" y="-140"/>
      <point x="185" y="-140" type="curve" smooth="yes"/>
      <point x="217" y="-140"/>
      <point x="243" y="-111"/>
      <point x="263" y="-50" type="curve" smooth="yes"/>
      <point x="374" y="280" type="line" smooth="yes"/>
      <point x="399" y="356"/>
      <point x="379" y="395"/>
      <point x="314" y="395" type="curve" smooth="yes"/>
      <point x="246" y="395"/>
      <point x="182" y="348"/>
      <point x="159" y="280" type="curve" smooth="yes"/>
      <point x="65" y="0" type="line"/>
      <point x="-15" y="0" type="line"/>
      <point x="139" y="460" type="line"/>
      <point x="219" y="460" type="line"/>
      <point x="195" y="388" type="line"/>
      <point x="242" y="440"/>
      <point x="301" y="470"/>
      <point x="359" y="470" type="curve" smooth="yes"/>
      <point x="459" y="470"/>
      <point x="495" y="404"/>
      <point x="457" y="290" type="curve" smooth="yes"/>
      <point x="340" y="-60" type="line" smooth="yes"/>
      <point x="305" y="-165"/>
      <point x="241" y="-220"/>
    </contour>
  </outline>
</glyph>
<glyph name="Scircumflex" format="2">
  <advance width="515"/>
  <unicode hex="015C"/>
  <outline>
    <contour>
      <point x="126" y="226" type="line"/>
      <point x="134" y="155"/>
      <point x="153" y="72"/>
      <point x="241" y="71" type="curve" smooth="yes"/>
      <point x="310" y="70"/>
      <point x="374" y="119"/>
      <point x="398" y="183" type="curve" smooth="yes"/>
      <point x="428" y="264"/>
      <point x="366" y="306"/>
      <point x="302" y="338" type="curve" smooth="yes"/>
      <point x="223" y="378"/>
      <point x="168" y="444"/>
      <point x="197" y="536" type="curve" smooth="yes"/>
      <point x="229" y="638"/>
      <point x="339" y="710"/>
      <point x="444" y="709" type="curve" smooth="yes"/>
      <point x="537" y="708"/>
      <point x="588" y="643"/>
      <point x="603" y="558" type="curve"/>
      <point x="524" y="514" type="line"/>
      <point x="513" y="569"/>
      <point x="495" y="626"/>
      <point x="429" y="628" type="curve" smooth="yes"/>
      <point x="368" y="629"/>
      <point x="301" y="587"/>
      <point x="281" y="529" type="curve" smooth="yes"/>
      <point x="255" y="456"/>
      <point x="330" y="423"/>
      <point x="383" y="396" type="curve" smooth="yes"/>
      <point x="466" y="354"/>
      <point x="514" y="284"/>
      <point x="485" y="189" type="curve" smooth="yes"/>
      <point x="451" y="75"/>
      <point x="341" y="-10"/>
      <point x="221" y="-9" type="curve" smooth="yes"/>
      <point x="107" y="-8"/>
      <point x="58" y="84"/>
      <point x="45" y="185" type="curve"/>
    </contour>
    <contour>
      <point x="508" y="864" type="line"/>
      <point x="370" y="771" type="line"/>
      <point x="332" y="813" type="line"/>
      <point x="528" y="950" type="line"/>
      <point x="636" y="808" type="line"/>
      <point x="579" y="771" type="line"/>
    </contour>
  </outline>
</glyph>
<glyph name="scedilla" format="2">
  <advance width="379"/>
  <unicode hex="015F"/>
  <outline>
    <contour>
      <point x="81" y="162" type="line"/>
      <point x="94" y="119"/>
      <point x="114" y="69"/>
      <point x="166" y="67" type="curve" smooth="yes"/>
      <point x="201" y="65"/>
      <point x="247" y="88"/>
      <point x="260" y="123" type="curve" smooth="yes"/>
      <point x="277" y="170"/>
      <point x="232" y="194"/>
      <point x="197" y="212" type="curve" smooth="yes"/>
      <point x="141" y="242"/>
      <point x="91" y="277"/>
      <point x="113" y="348" type="curve" smooth="yes"/>
      <point x="136" y="422"/>
      <point x="217" y="470"/>
      <point x="292" y="470" type="curve" smooth="yes"/>
      <point x="357" y="470"/>
      <point x="399" y="436"/>
      <point x="424" y="379" type="curve"/>
      <point x="353" y="341" type="line"/>
      <point x="336" y="370"/>
      <point x="315" y="396"/>
      <point x="278" y="397" type="curve" smooth="yes"/>
      <point x="247" y="398"/>
      <point x="201" y="382"/>
      <point x="190" y="349" type="curve" smooth="yes"/>
      <point x="174" y="303"/>
      <point x="236" y="286"/>
      <point x="266" y="271" type="curve" smooth="yes"/>
      <point x="322" y="243"/>
      <point x="362" y="195"/>
      <point x="343" y="130" type="curve" smooth="yes"/>
      <point x="319" y="47"/>
      <point x="235" y="-9"/>
      <point x="151" y="-8" type="curve" smooth="yes"/>
      <point x="69" y="-7"/>
      <point x="27" y="53"/>
      <point x="10" y="126" type="curve"/>
    </contour>
    <contour>
      <point x="174" y="58" type="line"/>
      <point x="237" y="58" type="line"/>
      <point x="136" y="-52" type="line"/>
      <point x="137" y="-52"/>
      <point x="139" y="-52"/>
      <point x="140" y="-52" type="curve" smooth="yes"/>
      <point x="179" y="-59"/>
      <point x="199" y="-89"/>
      <point x="190" y="-128" type="curve" smooth="yes"/>
      <point x="177" y="-181"/>
      <point x="111" y="-220"/>
      <point x="59" y="-219" type="curve" smooth="yes"/>
      <point x="26" y="-218"/>
      <point x="6" y="-201"/>
      <point x="-16" y="-179" type="curve"/>
      <point x="25" y="-143" type="line"/>
      <point x="38" y="-154"/>
      <point x="51" y="-166"/>
      <point x="70" y="-166" type="curve" smooth="yes"/>
      <point x="91" y="-166"/>
      <point x="128" y="-147"/>
      <point x="134" y="-125" type="curve" smooth="yes"/>
      <point x="140" y="-104"/>
      <point x="120" y="-91"/>
      <point x="102" y="-90" type="curve" smooth="yes"/>
      <point x="82" y="-88"/>
      <point x="59" y="-99"/>
      <point x="40" y="-106" type="curve"/>
    </contour>
  </outline>
</glyph>
<glyph name="scaron" format="2">
  <advance width="379"/>
  <unicode hex="0161"/>
  <outline>
    <contour>
      <point x="84" y="160" type="line"/>
      <point x="87" y="110"/>
      <point x="104" y="67"/>
      <point x="161" y="66" type="curve" smooth="yes"/>
      <point x="199" y="65"/>
      <point x="246" y="86"/>
      <point x="260" y="124" type="curve" smooth="yes"/>
      <point x="278" y="172"/>
      <point x="233" y="196"/>
      <point x="198" y="215" type="curve" smooth="yes"/>
      <point x="145" y="244"/>
      <point x="93" y="282"/>
      <point x="114" y="350" type="curve" smooth="yes"/>
      <point x="136" y="422"/>
      <point x="220" y="468"/>
      <point x="292" y="469" type="curve" smooth="yes"/>
      <point x="357" y="470"/>
      <point x="404" y="439"/>
      <point x="424" y="378" type="curve"/>
      <point x="353" y="340" type="line"/>
      <point x="335" y="368"/>
      <point x="314" y="393"/>
      <point x="277" y="393" type="curve" smooth="yes"/>
      <point x="246" y="393"/>
      <point x="199" y="376"/>
      <point x="189" y="343" type="curve" smooth="yes"/>
      <point x="176" y="300"/>
      <point x="237" y="281"/>
      <point x="265" y="266" type="curve" smooth="yes"/>
      <point x="317" y="238"/>
      <point x="360" y="192"/>
      <point x="343" y="129" type="curve" smooth="yes"/>
      <point x="320" y="42"/>
      <point x="227" y="-11"/>
      <point x="141" y="-9" type="curve" smooth="yes"/>
      <point x="59" y="-8"/>
      <point x="14" y="46"/>
      <point x="10" y="124" type="curve"/>
    </contour>
    <contour>
      <point x="341" y="616" type="line"/>
      <point x="479" y="709" type="line"/>
      <point x="518" y="667" type="line"/>
      <point x="321" y="530" type="line"/>
      <point x="213" y="672" type="line"/>
      <point x="271" y="709" type="line"/>
    </contour>
  </outline>
</glyph>
<glyph name="tcaron" format="2">
  <advance width="329"/>
  <unicode hex="0165"/>
  <outline>
    <contour>
      <point x="107" y="460" type="line"/>
      <point x="326" y="460" type="line"/>
      <point x="299" y="385" type="line"/>
      <point x="79" y="385" type="line"/>
    </contour>
    <contour>
      <point x="230" y="619" type="line"/>
      <point x="311" y="620" type="line"/>
      <point x="96" y="0" type="line"/>
      <point x="22" y="0" type="line"/>
    </contour>
    <contour>
      <point x="496" y="808" type="line"/>
      <point x="568" y="776" type="line"/>
      <point x="379" y="532" type="line"/>
      <point x="327" y="553" type="line"/>
    </contour>
  </outline>
</glyph>
<glyph name="Utilde" format="2">
  <advance width="589"/>
  <unicode hex="0168"/>
  <outline>
    <contour>
      <point x="254" y="700" type="line"/>
      <point x="339" y="700" type="line"/>
      <point x="175" y="230" type="line" smooth="yes"/>
      <point x="152" y="156"/>
      <point x="162" y="73"/>
      <point x="256" y="71" type="curve" smooth="yes"/>
      <point x="352" y="68"/>
      <point x="426" y="147"/>
      <point x="459" y="230" type="curve" smooth="yes"/>
      <point x="621" y="700" type="line"/>
      <point x="707" y="700" type="line"/>
      <point x="547" y="230" type="line" smooth="yes"/>
      <point x="501" y="104"/>
      <point x="388" y="-9"/>
      <point x="246" y="-9" type="curve" smooth="yes"/>
      <point x="109" y="-9"/>
      <point x="58" y="110"/>
      <point x="93" y="230" type="curve" smooth="yes"/>
    </contour>
    <contour>
      <point x="358" y="810" type="line"/>
      <point x="348" y="849"/>
      <point x="450" y="889"/>
      <point x="478" y="888" type="curve" smooth="yes"/>
      <point x="517" y="886"/>
      <point x="540" y="840"/>
      <point x="579" y="843" type="curve" smooth="yes"/>
      <point x="607" y="845"/>
      <point x="632" y="873"/>
      <point x="651" y="890" type="curve"/>
      <point x="686" y="843" type="line"/>
      <point x="657" y="812"/>
      <point x="615" y="771"/>
      <point x="568" y="775" type="curve" smooth="yes"/>
      <point x="530" y="778"/>
      <point x="509" y="822"/>
      <point x="471" y="820" type="curve" smooth="yes"/>
      <point x="441" y="818"/>
      <point x="420" y="792"/>
      <point x="403" y="771" type="curve"/>
    </contour>
  </outline>
</glyph>
<glyph name="utilde" format="2">
  <advance width="493"/>
  <unicode hex="0169"/>
  <outline>
    <contour>
      <point x="290" y="0" type="line"/>
      <point x="449" y="460" type="line"/>
      <point x="530" y="460" type="line"/>
      <point x="371" y="0" type="line"/>
    </contour>
    <contour>
      <point x="153" y="180" type="line" smooth="yes"/>
      <point x="138" y="132"/>
      <point x="132" y="70"/>
      <point x="198" y="67" type="curve" smooth="yes"/>
      <point x="269" y="63"/>
      <point x="320" y="123"/>
      <point x="352" y="178" type="curve"/>
      <point x="381" y="177" type="line"/>
      <point x="344" y="89"/>
      <point x="276" y="-8"/>
      <point x="170" y="-9" type="curve" smooth="yes"/>
      <point x="65" y="-10"/>
      <point x="49" y="87"/>
      <point x="73" y="170" type="curve"/>
      <point x="173" y="459" type="line"/>
      <point x="248" y="459" type="line"/>
    </contour>
    <contour>
      <point x="229" y="571" type="line"/>
      <point x="257" y="607"/>
      <point x="298" y="651"/>
      <point x="349" y="648" type="curve" smooth="yes"/>
      <point x="388" y="646"/>
      <point x="411" y="600"/>
      <point x="450" y="603" type="curve" smooth="yes"/>
      <point x="478" y="605"/>
      <point x="502" y="633"/>
      <point x="521" y="650" type="curve"/>
      <point x="557" y="603" type="line"/>
      <point x="528" y="572"/>
      <point x="486" y="531"/>
      <point x="439" y="535" type="curve" smooth="yes"/>
      <point x="401" y="538"/>
      <point x="379" y="582"/>
      <point x="341" y="580" type="curve" smooth="yes"/>
      <point x="311" y="578"/>
      <point x="291" y="552"/>
      <point x="274" y="531" type="curve"/>
    </contour>
  </outline>
</glyph>
<glyph name="zacute" format="2">
  <advance width="432"/>
  <unicode hex="017A"/>
  <outline>
    <contour>
      <point x="355" y="384" type="line"/>
      <point x="117" y="385" type="line"/>
      <point x="144" y="460" type="line"/>
      <point x="527" y="459" type="line"/>
      <point x="126" y="76" type="line"/>
      <point x="374" y="75" type="line"/>
      <point x="347" y="0" type="line"/>
      <point x="-45" y="0" type="line"/>
    </contour>
    <contour>
      <point x="567" y="695" type="line"/>
      <point x="349" y="552" type="line"/>
      <point x="311" y="583" type="line"/>
      <point x="505" y="739" type="line"/>
    </contour>
  </outline>
</glyph>
<glyph name="zcaron" format="2">
  <advance width="432"/>
  <unicode hex="017E"/>
  <outline>
    <contour>
      <point x="381" y="616" type="line"/>
      <point x="519" y="709" type="line"/>
      <point x="557" y="667" type="line"/>
      <point x="361" y="530" type="line"/>
      <point x="253" y="672" type="line"/>
      <point x="310" y="709" type="line"/>
    </contour>
    <contour>
      <point x="355" y="384" type="line"/>
      <point x="117" y="385" type="line"/>
      <point x="144" y="460" type="line"/>
      <point x="527" y="459" type="line"/>
      <point x="126" y="76" type="line"/>
      <point x="374" y="75" type="line"/>
      <point x="347" y="0" type="line"/>
      <point x="-45" y="0" type="line"/>
    </contour>
  </outline>
</glyph>
<glyph name="uni0212" format="2">
  <advance width="526"/>
  <unicode hex="0212"/>
  <outline>
    <contour>
      <point x="256" y="345" type="line"/>
      <point x="344" y="345" type="line"/>
      <point x="461" y="0" type="line"/>
      <point x="368" y="0" type="line"/>
    </contour>
    <contour>
      <point x="257" y="699" type="line"/>
      <point x="343" y="700" type="line"/>
      <point x="101" y="0" type="line"/>
      <point x="22" y="0" type="line"/>
    </contour>
    <contour>
      <point x="276" y="625" type="line"/>
      <point x="303" y="700" type="line"/>
      <point x="433" y="700" type="line" smooth="yes"/>
      <point x="552" y="695"/>
      <point x="631" y="609"/>
      <point x="593" y="489" type="curve" smooth="yes"/>
      <point x="554" y="364"/>
      <point x="428" y="285"/>
      <point x="301" y="280" type="curve" smooth="yes"/>
      <point x="158" y="280" type="line"/>
      <point x="185" y="355" type="line"/>
      <point x="315" y="355" type="line"/>
      <point x="399" y="360"/>
      <point x="480" y="409"/>
      <point x="510" y="490" type="curve" smooth="yes"/>
      <point x="538" y="566"/>
      <point x="496" y="619"/>
      <point x="419" y="624" type="curve"/>
    </contour>
    <contour>
      <point x="317" y="770" type="curve"/>
      <point x="391" y="771" type="line"/>
      <point x="417" y="810"/>
      <point x="448" y="844"/>
      <point x="499" y="844" type="curve" smooth="yes"/>
      <point x="548" y="844"/>
      <point x="560" y="812"/>
      <point x="558" y="769" type="curve"/>
      <point x="613" y="770" type="line"/>
      <point x="630" y="845"/>
      <point x="607" y="907"/>
      <point x="521" y="909" type="curve" smooth="yes"/>
      <point x="429" y="911"/>
      <point x="360" y="845"/>
    </contour>
  </outline>
</glyph>
<glyph name="uni0213" format="2">
  <advance width="322"/>
  <unicode hex="0213"/>
  <outline>
    <contour>
      <point x="251" y="460" type="line"/>
      <point x="92" y="0" type="line"/>
      <point x="13" y="0" type="line"/>
      <point x="173" y="460" type="line"/>
    </contour>
    <contour>
      <point x="354" y="373" type="line"/>
      <point x="339" y="384"/>
      <point x="324" y="394"/>
      <point x="304" y="395" type="curve" smooth="yes"/>
      <point x="242" y="397"/>
      <point x="210" y="329"/>
      <point x="188" y="282" type="curve"/>
      <point x="151" y="282" type="line"/>
      <point x="184" y="358"/>
      <point x="243" y="467"/>
      <point x="339" y="469" type="curve" smooth="yes"/>
      <point x="371" y="470"/>
      <point x="392" y="455"/>
      <point x="415" y="435" type="curve"/>
    </contour>
    <contour>
      <point x="171" y="530" type="curve"/>
      <point x="245" y="531" type="line"/>
      <point x="271" y="570"/>
      <point x="302" y="604"/>
      <point x="353" y="604" type="curve" smooth="yes"/>
      <point x="402" y="604"/>
      <point x="414" y="572"/>
      <point x="412" y="529" type="curve"/>
      <point x="467" y="530" type="line"/>
      <point x="484" y="605"/>
      <point x="461" y="667"/>
      <point x="375" y="669" type="curve" smooth="yes"/>
      <point x="283" y="671"/>
      <point x="214" y="605"/>
    </contour>
  </outline>
</glyph>
<glyph name="uni0218" format="2">
  <advance width="515"/>
  <unicode hex="0218"/>
  <outline>
    <contour>
      <point x="126" y="226" type="line"/>
      <point x="134" y="155"/>
      <point x="153" y="72"/>
      <point x="241" y="71" type="curve" smooth="yes"/>
      <point x="310" y="70"/>
      <point x="374" y="119"/>
      <point x="398" y="183" type="curve" smooth="yes"/>
      <point x="428" y="264"/>
      <point x="366" y="306"/>
      <point x="302" y="338" type="curve" smooth="yes"/>
      <point x="223" y="378"/>
      <point x="168" y="444"/>
      <point x="197" y="536" type="curve" smooth="yes"/>
      <point x="229" y="638"/>
      <point x="339" y="710"/>
      <point x="444" y="709" type="curve" smooth="yes"/>
      <point x="537" y="708"/>
      <point x="588" y="643"/>
      <point x="603" y="558" type="curve"/>
      <point x="524" y="514" type="line"/>
      <point x="513" y="569"/>
      <point x="495" y="626"/>
      <point x="429" y="628" type="curve" smooth="yes"/>
      <point x="368" y="629"/>
      <point x="301" y="587"/>
      <point x="281" y="529" type="curve" smooth="yes"/>
      <point x="255" y="456"/>
      <point x="330" y="423"/>
      <point x="383" y="396" type="curve" smooth="yes"/>
      <point x="466" y="354"/>
      <point x="515" y="284"/>
      <point x="486" y="189" type="curve" smooth="yes"/>
      <point x="452" y="75"/>
      <point x="341" y="-10"/>
      <point x="221" y="-9" type="curve" smooth="yes"/>
      <point x="107" y="-8"/>
      <point x="58" y="84"/>
      <point x="45" y="185" type="curve"/>
    </contour>
    <contour>
      <point x="195" y="-72" type="line"/>
      <point x="267" y="-104" type="line"/>
      <point x="78" y="-348" type="line"/>
      <point x="25" y="-327" type="line"/>
    </contour>
  </outline>
</glyph>
<glyph name="uni021A" format="2">
  <advance width="437"/>
  <unicode hex="021A"/>
  <outline>
    <contour>
      <point x="164" y="620" type="line"/>
      <point x="193" y="700" type="line"/>
      <point x="615" y="700" type="line"/>
      <point x="587" y="620" type="line"/>
      <point x="418" y="620" type="line"/>
      <point x="205" y="0" type="line"/>
      <point x="122" y="0" type="line"/>
      <point x="335" y="620" type="line"/>
    </contour>
    <contour>
      <point x="144.518" y="-60" type="line"/>
      <point x="216.518" y="-92" type="line"/>
      <point x="27.5176" y="-336" type="line"/>
      <point x="-25.4824" y="-315" type="line"/>
    </contour>
  </outline>
</glyph>
<glyph name="dotaccent" format="2">
  <advance width="282"/>
  <unicode hex="02D9"/>
  <outline>
    <contour>
      <point x="304" y="792" type="curve" smooth="yes"/>
      <point x="304" y="822"/>
      <point x="329" y="847"/>
      <point x="359" y="847" type="curve" smooth="yes"/>
      <point x="389" y="847"/>
      <point x="414" y="822"/>
      <point x="414" y="792" type="curve" smooth="yes"/>
      <point x="414" y="762"/>
      <point x="389" y="737"/>
      <point x="359" y="737" type="curve" smooth="yes"/>
      <point x="329" y="737"/>
      <point x="304" y="762"/>
    </contour>
  </outline>
</glyph>
<glyph name="ring" format="2">
  <advance width="261"/>
  <unicode hex="02DA"/>
  <outline>
    <contour>
      <point x="247" y="787" type="curve" smooth="yes"/>
      <point x="262" y="837"/>
      <point x="321" y="885"/>
      <point x="375" y="884" type="curve" smooth="yes"/>
      <point x="429" y="883"/>
      <point x="457" y="832"/>
      <point x="442" y="783" type="curve" smooth="yes"/>
      <point x="427" y="733"/>
      <point x="368" y="685"/>
      <point x="314" y="686" type="curve" smooth="yes"/>
      <point x="260" y="687"/>
      <point x="232" y="738"/>
    </contour>
    <contour>
      <point x="296" y="784" type="curve" smooth="yes"/>
      <point x="290" y="764"/>
      <point x="300" y="736"/>
      <point x="323" y="733" type="curve" smooth="yes"/>
      <point x="347" y="729"/>
      <point x="387" y="764"/>
      <point x="393" y="786" type="curve" smooth="yes"/>
      <point x="399" y="806"/>
      <point x="389" y="834"/>
      <point x="366" y="837" type="curve" smooth="yes"/>
      <point x="342" y="841"/>
      <point x="302" y="806"/>
    </contour>
  </outline>
</glyph>
<glyph name="ogonek" format="2">
  <advance width="244"/>
  <unicode hex="02DB"/>
  <outline>
    <contour>
      <point x="107" y="-130" type="curve"/>
      <point x="125" y="-182" type="line"/>
      <point x="97" y="-201"/>
      <point x="68" y="-218"/>
      <point x="33" y="-219" type="curve" smooth="yes"/>
      <point x="-27" y="-221"/>
      <point x="-75" y="-181"/>
      <point x="-58" y="-119" type="curve" smooth="yes"/>
      <point x="-38" y="-46"/>
      <point x="47" y="-6"/>
      <point x="109" y="24" type="curve"/>
      <point x="145" y="0" type="line"/>
      <point x="105" y="-23"/>
      <point x="37" y="-49"/>
      <point x="25" y="-100" type="curve" smooth="yes"/>
      <point x="20" y="-122"/>
      <point x="27" y="-145"/>
      <point x="52" y="-149" type="curve" smooth="yes"/>
      <point x="70" y="-152"/>
      <point x="92" y="-138"/>
    </contour>
  </outline>
</glyph>
<glyph name="tilde" format="2">
  <advance width="498"/>
  <unicode hex="02DC"/>
  <outline>
    <contour>
      <point x="250" y="628" type="line"/>
      <point x="278" y="665"/>
      <point x="319" y="709"/>
      <point x="370" y="706" type="curve" smooth="yes"/>
      <point x="409" y="704"/>
      <point x="433" y="658"/>
      <point x="473" y="661" type="curve" smooth="yes"/>
      <point x="500" y="663"/>
      <point x="523" y="690"/>
      <point x="542" y="707" type="curve"/>
      <point x="577" y="662" type="line"/>
      <point x="548" y="630"/>
      <point x="506" y="589"/>
      <point x="458" y="593" type="curve" smooth="yes"/>
      <point x="420" y="596"/>
      <point x="397" y="640"/>
      <point x="358" y="638" type="curve" smooth="yes"/>
      <point x="328" y="636"/>
      <point x="310" y="611"/>
      <point x="294" y="589" type="curve"/>
    </contour>
  </outline>
</glyph>
<glyph name="gravecomb" format="2">
  <unicode hex="0300"/>
  <outline>
    <contour>
      <point x="362" y="545" type="line"/>
      <point x="233" y="695" type="line"/>
      <point x="311" y="735" type="line"/>
      <point x="407" y="575" type="line"/>
    </contour>
  </outline>
</glyph>
<glyph name="acutecomb" format="2">
  <unicode hex="0301"/>
  <outline>
    <contour>
      <point x="262" y="535" type="line"/>
      <point x="207" y="575" type="line"/>
      <point x="411" y="735" type="line"/>
      <point x="493" y="685" type="line"/>
    </contour>
  </outline>
</glyph>
<glyph name="uni0302" format="2">
  <unicode hex="0302"/>
  <outline>
    <contour>
      <point x="234" y="545" type="line"/>
      <point x="199" y="596" type="line"/>
      <point x="394" y="726" type="line"/>
      <point x="501" y="596" type="line"/>
      <point x="444" y="547" type="line"/>
      <point x="363" y="650" type="line"/>
      <point x="397" y="650" type="line"/>
    </contour>
  </outline>
</glyph>
<glyph name="uni0306" format="2">
  <unicode hex="0306"/>
  <outline>
    <contour>
      <point x="349" y="540" type="curve" smooth="yes"/>
      <point x="257" y="540"/>
      <point x="201" y="599"/>
      <point x="228" y="680" type="curve"/>
      <point x="299" y="680" type="line"/>
      <point x="285" y="637"/>
      <point x="310" y="605"/>
      <point x="360" y="605" type="curve" smooth="yes"/>
      <point x="400" y="605"/>
      <point x="459" y="637"/>
      <point x="473" y="680" type="curve"/>
      <point x="544" y="680" type="line"/>
      <point x="517" y="599"/>
      <point x="441" y="540"/>
    </contour>
  </outline>
</glyph>
<glyph name="uni0307" format="2">
  <unicode hex="0307"/>
  <outline>
    <contour>
      <point x="264" y="570" type="curve" smooth="yes"/>
      <point x="234" y="570"/>
      <point x="209" y="595"/>
      <point x="209" y="625" type="curve" smooth="yes"/>
      <point x="209" y="655"/>
      <point x="234" y="680"/>
      <point x="264" y="680" type="curve" smooth="yes"/>
      <point x="294" y="680"/>
      <point x="319" y="655"/>
      <point x="319" y="625" type="curve" smooth="yes"/>
      <point x="319" y="595"/>
      <point x="294" y="570"/>
    </contour>
  </outline>
</glyph>
<glyph name="uni030A" format="2">
  <unicode hex="030A"/>
  <outline>
    <contour>
      <point x="286" y="520" type="curve" smooth="yes"/>
      <point x="224" y="520"/>
      <point x="191" y="569"/>
      <point x="211" y="630" type="curve" smooth="yes"/>
      <point x="231" y="691"/>
      <point x="298" y="740"/>
      <point x="360" y="740" type="curve" smooth="yes"/>
      <point x="422" y="740"/>
      <point x="456" y="691"/>
      <point x="436" y="630" type="curve" smooth="yes"/>
      <point x="416" y="569"/>
      <point x="348" y="520"/>
    </contour>
    <contour>
      <point x="303" y="572" type="curve" smooth="yes"/>
      <point x="334" y="572"/>
      <point x="368" y="598"/>
      <point x="379" y="630" type="curve" smooth="yes"/>
      <point x="390" y="662"/>
      <point x="373" y="688"/>
      <point x="342" y="688" type="curve" smooth="yes"/>
      <point x="311" y="688"/>
      <point x="278" y="662"/>
      <point x="267" y="630" type="curve" smooth="yes"/>
      <point x="256" y="598"/>
      <point x="272" y="572"/>
    </contour>
  </outline>
</glyph>
<glyph name="uni030B" format="2">
  <unicode hex="030B"/>
  <outline>
    <contour>
      <point x="58" y="506" type="line"/>
      <point x="0" y="528" type="line"/>
      <point x="154" y="722" type="line"/>
      <point x="242" y="697" type="line"/>
    </contour>
    <contour>
      <point x="222" y="506" type="line"/>
      <point x="165" y="528" type="line"/>
      <point x="318" y="722" type="line"/>
      <point x="408" y="697" type="line"/>
    </contour>
  </outline>
</glyph>
<glyph name="uni0328" format="2">
  <unicode hex="0328"/>
  <outline>
    <contour>
      <point x="49" y="-220" type="curve" smooth="yes"/>
      <point x="-15" y="-220"/>
      <point x="-60" y="-179"/>
      <point x="-40" y="-120" type="curve" smooth="yes"/>
      <point x="-20" y="-61"/>
      <point x="48" y="-11"/>
      <point x="130" y="25" type="curve"/>
      <point x="173" y="0" type="line"/>
      <point x="114" y="-22"/>
      <point x="59" y="-63"/>
      <point x="47" y="-100" type="curve" smooth="yes"/>
      <point x="35" y="-136"/>
      <point x="58" y="-150"/>
      <point x="78" y="-150" type="curve" smooth="yes"/>
      <point x="104" y="-150"/>
      <point x="117" y="-143"/>
      <point x="135" y="-130" type="curve"/>
      <point x="151" y="-180" type="line"/>
      <point x="129" y="-200"/>
      <point x="92" y="-220"/>
    </contour>
  </outline>
</glyph>
<glyph name="uni0394" format="2">
  <advance width="600"/>
  <unicode hex="0394"/>
  <outline>
    <contour>
      <point x="-72" y="0" type="line"/>
      <point x="491" y="0" type="line"/>
      <point x="478" y="800" type="line"/>
    </contour>
    <contour>
      <point x="73" y="76" type="line"/>
      <point x="406" y="570" type="line"/>
      <point x="397" y="76" type="line"/>
    </contour>
  </outline>
</glyph>
<glyph name="pi" format="2">
  <advance width="508"/>
  <unicode hex="03C0"/>
  <outline>
    <contour>
      <point x="174" y="429" type="line"/>
      <point x="256" y="430" type="line"/>
      <point x="105" y="0" type="line"/>
      <point x="31" y="0" type="line"/>
    </contour>
    <contour>
      <point x="130" y="460" type="line"/>
      <point x="576" y="460" type="line"/>
      <point x="549" y="385" type="line"/>
      <point x="103" y="385" type="line"/>
    </contour>
    <contour>
      <point x="412" y="430" type="line"/>
      <point x="491" y="430" type="line"/>
      <point x="389" y="141" type="line"/>
      <point x="378" y="102"/>
      <point x="379" y="86"/>
      <point x="416" y="71" type="curve"/>
      <point x="390" y="-8" type="line"/>
      <point x="307" y="1"/>
      <point x="283" y="40"/>
      <point x="306" y="121" type="curve"/>
    </contour>
  </outline>
</glyph>
<glyph name="uni0400" format="2">
  <advance width="517"/>
  <unicode hex="0400"/>
  <outline>
    <contour>
      <point x="67" y="0" type="line"/>
      <point x="92" y="80" type="line"/>
      <point x="429" y="80" type="line"/>
      <point x="403" y="0" type="line"/>
    </contour>
    <contour>
      <point x="278" y="621" type="line"/>
      <point x="303" y="700" type="line"/>
      <point x="641" y="700" type="line"/>
      <point x="614" y="621" type="line"/>
    </contour>
    <contour>
      <point x="183" y="341" type="line"/>
      <point x="208" y="420" type="line"/>
      <point x="526" y="420" type="line"/>
      <point x="500" y="341" type="line"/>
    </contour>
    <contour>
      <point x="255" y="699" type="line"/>
      <point x="345" y="700" type="line"/>
      <point x="101" y="0" type="line"/>
      <point x="22" y="0" type="line"/>
    </contour>
    <contour>
      <point x="366.836" y="921" type="line"/>
      <point x="447.836" y="959" type="line"/>
      <point x="544.836" y="797" type="line"/>
      <point x="495.836" y="770" type="line"/>
    </contour>
  </outline>
</glyph>
<glyph name="uni0414" format="2">
  <advance width="748"/>
  <unicode hex="0414"/>
  <outline>
    <contour>
      <point x="508" y="543" type="line"/>
      <point x="149" y="31" type="line"/>
      <point x="53" y="31" type="line"/>
      <point x="569" y="741" type="line"/>
      <point x="594" y="30" type="line"/>
      <point x="515" y="30" type="line"/>
    </contour>
    <contour>
      <point x="585" y="0" type="line"/>
      <point x="58" y="0" type="line"/>
      <point x="19" y="-109" type="line"/>
      <point x="-56" y="-109" type="line"/>
      <point x="9" y="80" type="line"/>
      <point x="683" y="80" type="line"/>
      <point x="616" y="-109" type="line"/>
      <point x="544" y="-109" type="line"/>
    </contour>
  </outline>
</glyph>
<glyph name="uni0419" format="2">
  <advance width="729"/>
  <unicode hex="0419"/>
  <outline>
    <contour>
      <point x="802" y="599" type="line"/>
      <point x="-1" y="-47" type="line"/>
      <point x="58" y="101" type="line"/>
      <point x="860" y="748" type="line"/>
    </contour>
    <contour>
      <point x="344" y="700" type="line"/>
      <point x="127" y="68" type="line"/>
      <point x="-1" y="-47" type="line"/>
      <point x="258" y="700" type="line"/>
    </contour>
    <contour>
      <point x="860" y="748" type="line"/>
      <point x="601" y="0" type="line"/>
      <point x="516" y="0" type="line"/>
      <point x="732" y="632" type="line"/>
    </contour>
    <contour>
      <point x="456.808" y="907" type="curve"/>
      <point x="523.808" y="907" type="line"/>
      <point x="521.808" y="867"/>
      <point x="531.808" y="834"/>
      <point x="578.808" y="833" type="curve" smooth="yes"/>
      <point x="629.808" y="832"/>
      <point x="661.808" y="867"/>
      <point x="686.808" y="906" type="curve"/>
      <point x="756.808" y="905" type="line"/>
      <point x="721.808" y="829"/>
      <point x="657.808" y="768"/>
      <point x="568.808" y="768" type="curve" smooth="yes"/>
      <point x="482.808" y="768"/>
      <point x="447.808" y="828"/>
    </contour>
  </outline>
</glyph>
<glyph name="uni041B" format="2">
  <advance width="619"/>
  <unicode hex="041B"/>
  <outline>
    <contour>
      <point x="732" y="700" type="line"/>
      <point x="491" y="0" type="line"/>
      <point x="406" y="0" type="line"/>
      <point x="619" y="620" type="line"/>
      <point x="333" y="620" type="line"/>
      <point x="204" y="239" type="line" smooth="yes"/>
      <point x="161" y="119"/>
      <point x="86" y="22"/>
      <point x="-45" y="2" type="curve"/>
      <point x="-23" y="72" type="line"/>
      <point x="62" y="100"/>
      <point x="99" y="181"/>
      <point x="128" y="260" type="curve" smooth="yes"/>
      <point x="279" y="700" type="line"/>
    </contour>
  </outline>
</glyph>
<glyph name="uni0426" format="2">
  <advance width="715"/>
  <unicode hex="0426"/>
  <outline>
    <contour>
      <point x="125" y="79" type="line"/>
      <point x="487" y="80" type="line"/>
      <point x="700" y="700" type="line"/>
      <point x="786" y="700" type="line"/>
      <point x="573" y="80" type="line"/>
      <point x="654" y="80" type="line"/>
      <point x="588" y="-109" type="line"/>
      <point x="513" y="-109" type="line"/>
      <point x="551" y="0" type="line"/>
      <point x="18" y="0" type="line"/>
      <point x="260" y="700" type="line"/>
      <point x="339" y="699" type="line"/>
    </contour>
  </outline>
</glyph>
<glyph name="uni0427" format="2">
  <advance width="578"/>
  <unicode hex="0427"/>
  <outline>
    <contour>
      <point x="315" y="281" type="line"/>
      <point x="339" y="355" type="line"/>
      <point x="549" y="355" type="line"/>
      <point x="523" y="281" type="line"/>
    </contour>
    <contour>
      <point x="603" y="699" type="line"/>
      <point x="693" y="700" type="line"/>
      <point x="450" y="0" type="line"/>
      <point x="370" y="0" type="line"/>
    </contour>
    <contour>
      <point x="339" y="700" type="line"/>
      <point x="274" y="518" type="line" smooth="yes"/>
      <point x="246.149" y="440.018"/>
      <point x="263" y="355"/>
      <point x="339" y="355" type="curve"/>
      <point x="315" y="281" type="line"/>
      <point x="204" y="281"/>
      <point x="161" y="403"/>
      <point x="196" y="518" type="curve" smooth="yes"/>
      <point x="258" y="700" type="line"/>
    </contour>
  </outline>
</glyph>
<glyph name="uni042A" format="2">
  <advance width="619"/>
  <unicode hex="042A"/>
  <outline>
    <contour>
      <point x="281" y="340" type="line"/>
      <point x="310" y="420" type="line"/>
      <point x="438" y="420" type="line" smooth="yes"/>
      <point x="557" y="420"/>
      <point x="639" y="330"/>
      <point x="602" y="209" type="curve" smooth="yes"/>
      <point x="564" y="84"/>
      <point x="439" y="0"/>
      <point x="312" y="0" type="curve" smooth="yes"/>
      <point x="165" y="0" type="line"/>
      <point x="194" y="80" type="line"/>
      <point x="321" y="80" type="line" smooth="yes"/>
      <point x="404" y="84"/>
      <point x="487" y="129"/>
      <point x="518" y="210" type="curve" smooth="yes"/>
      <point x="547" y="286"/>
      <point x="504" y="338"/>
      <point x="428" y="339" type="curve" smooth="yes"/>
    </contour>
    <contour>
      <point x="339" y="621" type="line"/>
      <point x="163" y="620" type="line"/>
      <point x="192" y="700" type="line"/>
      <point x="447" y="700" type="line"/>
      <point x="205" y="0" type="line"/>
      <point x="126" y="0" type="line"/>
    </contour>
  </outline>
</glyph>
<glyph name="uni042E" format="2">
  <advance width="969"/>
  <unicode hex="042E"/>
  <outline>
    <contour>
      <point x="182" y="341" type="line"/>
      <point x="208" y="420" type="line"/>
      <point x="420" y="420" type="line"/>
      <point x="393" y="341" type="line"/>
    </contour>
    <contour>
      <point x="255" y="699" type="line"/>
      <point x="345" y="700" type="line"/>
      <point x="101" y="0" type="line"/>
      <point x="22" y="0" type="line"/>
    </contour>
    <contour>
      <point x="416" y="350" type="curve" smooth="yes"/>
      <point x="371" y="227"/>
      <point x="407" y="78"/>
      <point x="560" y="76" type="curve" smooth="yes"/>
      <point x="717" y="74"/>
      <point x="859" y="210"/>
      <point x="910" y="350" type="curve" smooth="yes"/>
      <point x="955" y="473"/>
      <point x="919" y="622"/>
      <point x="766" y="624" type="curve" smooth="yes"/>
      <point x="609" y="626"/>
      <point x="467" y="490"/>
    </contour>
    <contour>
      <point x="326" y="350" type="curve" smooth="yes"/>
      <point x="386" y="538"/>
      <point x="571" y="711"/>
      <point x="776" y="710" type="curve" smooth="yes"/>
      <point x="974" y="709"/>
      <point x="1053" y="522"/>
      <point x="999" y="350" type="curve" smooth="yes"/>
      <point x="939" y="162"/>
      <point x="754" y="-11"/>
      <point x="549" y="-10" type="curve" smooth="yes"/>
      <point x="351" y="-9"/>
      <point x="272" y="178"/>
    </contour>
  </outline>
</glyph>
<glyph name="uni0432" format="2">
  <advance width="426"/>
  <unicode hex="0432"/>
  <outline>
    <contour>
      <point x="140" y="239" type="line"/>
      <point x="260" y="240" type="line" smooth="yes"/>
      <point x="332" y="238"/>
      <point x="413" y="212"/>
      <point x="389" y="124" type="curve" smooth="yes"/>
      <point x="367" y="45"/>
      <point x="288" y="2"/>
      <point x="212" y="1" type="curve" smooth="yes"/>
      <point x="60" y="0" type="line"/>
      <point x="81" y="69" type="line"/>
      <point x="202" y="70" type="line" smooth="yes"/>
      <point x="243" y="70"/>
      <point x="300" y="92"/>
      <point x="314" y="136" type="curve" smooth="yes"/>
      <point x="327" y="177"/>
      <point x="294" y="196"/>
      <point x="259" y="197" type="curve" smooth="yes"/>
      <point x="127" y="199" type="line"/>
    </contour>
    <contour>
      <point x="135" y="221" type="line"/>
      <point x="150" y="266" type="line"/>
      <point x="261" y="267" type="line" smooth="yes"/>
      <point x="299" y="267"/>
      <point x="350" y="291"/>
      <point x="362" y="331" type="curve" smooth="yes"/>
      <point x="373" y="367"/>
      <point x="347" y="388"/>
      <point x="315" y="389" type="curve" smooth="yes"/>
      <point x="193" y="391" type="line"/>
      <point x="214" y="460" type="line"/>
      <point x="326" y="460" type="line" smooth="yes"/>
      <point x="399" y="460"/>
      <point x="468" y="416"/>
      <point x="442" y="334" type="curve" smooth="yes"/>
      <point x="418" y="256"/>
      <point x="334" y="224"/>
      <point x="259" y="221" type="curve" smooth="yes"/>
    </contour>
    <contour>
      <point x="168" y="460" type="line"/>
      <point x="254" y="460" type="line"/>
      <point x="92" y="0" type="line"/>
      <point x="17" y="0" type="line"/>
    </contour>
  </outline>
</glyph>
<glyph name="uni0440" format="2">
  <advance width="536"/>
  <unicode hex="0440"/>
  <outline>
    <contour>
      <point x="17" y="-219" type="line"/>
      <point x="-68" y="-220" type="line"/>
      <point x="168" y="460" type="line"/>
      <point x="243" y="459" type="line"/>
    </contour>
    <contour>
      <point x="530" y="230" type="curve" smooth="yes"/>
      <point x="492" y="108"/>
      <point x="375" y="-12"/>
      <point x="240" y="-10" type="curve" smooth="yes"/>
      <point x="108" y="-8"/>
      <point x="98" y="130"/>
      <point x="129" y="230" type="curve" smooth="yes"/>
      <point x="164" y="343"/>
      <point x="256" y="468"/>
      <point x="386" y="469" type="curve" smooth="yes"/>
      <point x="520" y="471"/>
      <point x="565" y="342"/>
    </contour>
    <contour>
      <point x="450" y="230" type="curve" smooth="yes"/>
      <point x="477" y="302"/>
      <point x="461" y="394"/>
      <point x="369" y="394" type="curve" smooth="yes"/>
      <point x="279" y="394"/>
      <point x="197" y="309"/>
      <point x="167" y="230" type="curve" smooth="yes"/>
      <point x="142" y="164"/>
      <point x="152" y="70"/>
      <point x="239" y="66" type="curve" smooth="yes"/>
      <point x="333" y="61"/>
      <point x="419" y="148"/>
    </contour>
  </outline>
</glyph>
<glyph name="uni0441" format="2">
  <advance width="449"/>
  <unicode hex="0441"/>
  <outline>
    <contour>
      <point x="130" y="230" type="curve" smooth="yes"/>
      <point x="102" y="157"/>
      <point x="122" y="70"/>
      <point x="212" y="67" type="curve" smooth="yes"/>
      <point x="282" y="65"/>
      <point x="346" y="104"/>
      <point x="398" y="147" type="curve"/>
      <point x="369" y="48" type="line"/>
      <point x="319" y="13"/>
      <point x="265" y="-10"/>
      <point x="203" y="-10" type="curve" smooth="yes"/>
      <point x="70" y="-9"/>
      <point x="14" y="113"/>
      <point x="50" y="230" type="curve" smooth="yes"/>
      <point x="89" y="357"/>
      <point x="214" y="468"/>
      <point x="350" y="469" type="curve" smooth="yes"/>
      <point x="406" y="469"/>
      <point x="451" y="450"/>
      <point x="489" y="410" type="curve"/>
      <point x="459" y="311" type="line"/>
      <point x="441" y="366"/>
      <point x="401" y="395"/>
      <point x="342" y="394" type="curve" smooth="yes"/>
      <point x="248" y="393"/>
      <point x="162" y="314"/>
    </contour>
  </outline>
</glyph>
<glyph name="uni0450" format="2">
  <advance width="484"/>
  <unicode hex="0450"/>
  <outline>
    <contour>
      <point x="111" y="210" type="line"/>
      <point x="131" y="278" type="line"/>
      <point x="419" y="278" type="line"/>
      <point x="435" y="339"/>
      <point x="415" y="397"/>
      <point x="341" y="399" type="curve" smooth="yes"/>
      <point x="256" y="401"/>
      <point x="190" y="332"/>
      <point x="158" y="260" type="curve" smooth="yes"/>
      <point x="146" y="230" type="line"/>
      <point x="122" y="157"/>
      <point x="135" y="67"/>
      <point x="228" y="66" type="curve" smooth="yes"/>
      <point x="292" y="65"/>
      <point x="343" y="108"/>
      <point x="389" y="149" type="curve"/>
      <point x="445" y="104" type="line"/>
      <point x="380" y="41"/>
      <point x="301" y="-11"/>
      <point x="206" y="-9" type="curve" smooth="yes"/>
      <point x="75" y="-6"/>
      <point x="38" y="120"/>
      <point x="68" y="230" type="curve" smooth="yes"/>
      <point x="73" y="247"/>
      <point x="79" y="263"/>
      <point x="86" y="279" type="curve" smooth="yes"/>
      <point x="133" y="381"/>
      <point x="235" y="470"/>
      <point x="352" y="469" type="curve" smooth="yes"/>
      <point x="487" y="468"/>
      <point x="519" y="346"/>
      <point x="491" y="234" type="curve" smooth="yes"/>
      <point x="489" y="226"/>
      <point x="486" y="218"/>
      <point x="484" y="210" type="curve"/>
    </contour>
    <contour>
      <point x="242.502" y="680.009" type="line"/>
      <point x="323.502" y="718.009" type="line"/>
      <point x="420.502" y="556.009" type="line"/>
      <point x="371.502" y="529.009" type="line"/>
    </contour>
  </outline>
</glyph>
<glyph name="uni2010" format="2">
  <advance width="197"/>
  <unicode hex="2010"/>
  <outline>
    <contour>
      <point x="19" y="201" type="line"/>
      <point x="44" y="275" type="line"/>
      <point x="236" y="275" type="line"/>
      <point x="210" y="201" type="line"/>
    </contour>
  </outline>
</glyph>
<glyph name="quotedblbase" format="2">
  <advance width="446"/>
  <unicode hex="201E"/>
  <outline>
    <contour>
      <point x="83" y="79" type="line"/>
      <point x="181" y="79" type="line"/>
      <point x="5" y="-148" type="line"/>
      <point x="-50" y="-148" type="line"/>
    </contour>
    <contour>
      <point x="271" y="79" type="line"/>
      <point x="370" y="79" type="line"/>
      <point x="194" y="-148" type="line"/>
      <point x="138" y="-148" type="line"/>
    </contour>
  </outline>
</glyph>
<glyph name="uni203D" format="2">
  <advance width="524"/>
  <unicode hex="203D"/>
  <outline>
    <contour>
      <point x="507" y="500" type="curve" smooth="yes"/>
      <point x="534" y="571"/>
      <point x="500" y="633"/>
      <point x="421" y="634" type="curve" smooth="yes"/>
      <point x="356" y="635"/>
      <point x="302" y="594"/>
      <point x="256" y="553" type="curve"/>
      <point x="203" y="596" type="line"/>
      <point x="270" y="659"/>
      <point x="349" y="711"/>
      <point x="445" y="709" type="curve" smooth="yes"/>
      <point x="561" y="707"/>
      <point x="620" y="606"/>
      <point x="586" y="499" type="curve" smooth="yes"/>
      <point x="547" y="377"/>
      <point x="428" y="304"/>
      <point x="306" y="289" type="curve"/>
      <point x="273" y="347" type="line"/>
      <point x="369" y="357"/>
      <point x="471" y="403"/>
    </contour>
    <contour>
      <point x="305" y="510" type="line"/>
      <point x="406" y="509" type="line"/>
      <point x="269" y="171" type="line"/>
      <point x="210" y="171" type="line"/>
    </contour>
    <contour>
      <point x="142" y="42" type="curve" smooth="yes"/>
      <point x="148" y="66"/>
      <point x="186" y="97"/>
      <point x="211" y="94" type="curve" smooth="yes"/>
      <point x="238" y="91"/>
      <point x="253" y="64"/>
      <point x="247" y="38" type="curve" smooth="yes"/>
      <point x="241" y="14"/>
      <point x="203" y="-17"/>
      <point x="178" y="-14" type="curve" smooth="yes"/>
      <point x="151" y="-11"/>
      <point x="136" y="16"/>
    </contour>
  </outline>
</glyph>
<glyph name="uni2070" format="2">
  <advance width="350"/>
  <unicode hex="2070"/>
  <outline>
    <contour>
      <point x="190" y="490" type="curve" smooth="yes"/>
      <point x="173" y="442"/>
      <point x="143" y="326"/>
      <point x="225" y="323" type="curve" smooth="yes"/>
      <point x="307" y="320"/>
      <point x="362" y="426"/>
      <point x="386" y="490" type="curve" smooth="yes"/>
      <point x="403" y="538"/>
      <point x="433" y="654"/>
      <point x="351" y="657" type="curve" smooth="yes"/>
      <point x="269" y="660"/>
      <point x="214" y="554"/>
    </contour>
    <contour>
      <point x="139" y="490" type="curve" smooth="yes"/>
      <point x="168" y="581"/>
      <point x="247" y="706"/>
      <point x="356" y="705" type="curve" smooth="yes"/>
      <point x="469" y="704"/>
      <point x="462" y="567"/>
      <point x="437" y="490" type="curve" smooth="yes"/>
      <point x="408" y="399"/>
      <point x="329" y="274"/>
      <point x="220" y="275" type="curve" smooth="yes"/>
      <point x="107" y="276"/>
      <point x="114" y="413"/>
    </contour>
  </outline>
</glyph>
<glyph name="uni2075" format="2">
  <advance width="334"/>
  <unicode hex="2075"/>
  <outline>
    <contour>
      <point x="396" y="415" type="curve" smooth="yes"/>
      <point x="372" y="337"/>
      <point x="295" y="273"/>
      <point x="212" y="273" type="curve" smooth="yes"/>
      <point x="151" y="273"/>
      <point x="117" y="308"/>
      <point x="96" y="362" type="curve"/>
      <point x="144" y="390" type="line"/>
      <point x="157" y="354"/>
      <point x="175" y="322"/>
      <point x="218" y="321" type="curve" smooth="yes"/>
      <point x="273" y="320"/>
      <point x="327" y="366"/>
      <point x="344" y="416" type="curve" smooth="yes"/>
      <point x="360" y="461"/>
      <point x="345" y="505"/>
      <point x="294" y="511" type="curve" smooth="yes"/>
      <point x="253" y="515"/>
      <point x="211" y="493"/>
      <point x="176" y="477" type="curve"/>
      <point x="213" y="513" type="line"/>
      <point x="241" y="537"/>
      <point x="282" y="558"/>
      <point x="320" y="557" type="curve" smooth="yes"/>
      <point x="397" y="555"/>
      <point x="416" y="478"/>
    </contour>
    <contour>
      <point x="330" y="653" type="line"/>
      <point x="254" y="525" type="line"/>
      <point x="164" y="466" type="line"/>
      <point x="302" y="697" type="line"/>
      <point x="491" y="697" type="line"/>
      <point x="476" y="654" type="line"/>
    </contour>
  </outline>
</glyph>
<glyph name="uni2078" format="2">
  <advance width="302"/>
  <unicode hex="2078"/>
  <outline>
    <contour>
      <point x="191" y="600" type="curve" smooth="yes"/>
      <point x="209" y="657"/>
      <point x="274" y="706"/>
      <point x="334" y="705" type="curve" smooth="yes"/>
      <point x="393" y="704"/>
      <point x="428" y="654"/>
      <point x="412" y="598" type="curve" smooth="yes"/>
      <point x="395" y="539"/>
      <point x="331" y="493"/>
      <point x="270" y="494" type="curve" smooth="yes"/>
      <point x="209" y="495"/>
      <point x="173" y="541"/>
    </contour>
    <contour>
      <point x="236" y="592" type="curve" smooth="yes"/>
      <point x="226" y="563"/>
      <point x="239" y="530"/>
      <point x="273" y="527" type="curve" smooth="yes"/>
      <point x="308" y="524"/>
      <point x="352" y="562"/>
      <point x="363" y="594" type="curve" smooth="yes"/>
      <point x="373" y="624"/>
      <point x="362" y="657"/>
      <point x="327" y="660" type="curve" smooth="yes"/>
      <point x="291" y="663"/>
      <point x="247" y="625"/>
    </contour>
    <contour>
      <point x="107" y="395" type="curve" smooth="yes"/>
      <point x="127" y="461"/>
      <point x="199" y="514"/>
      <point x="268" y="513" type="curve" smooth="yes"/>
      <point x="336" y="513"/>
      <point x="377" y="458"/>
      <point x="357" y="393" type="curve" smooth="yes"/>
      <point x="337" y="328"/>
      <point x="264" y="274"/>
      <point x="196" y="275" type="curve" smooth="yes"/>
      <point x="130" y="276"/>
      <point x="88" y="332"/>
    </contour>
    <contour>
      <point x="157" y="400" type="curve" smooth="yes"/>
      <point x="143" y="363"/>
      <point x="158" y="322"/>
      <point x="201" y="320" type="curve" smooth="yes"/>
      <point x="246" y="318"/>
      <point x="297" y="359"/>
      <point x="311" y="400" type="curve" smooth="yes"/>
      <point x="323" y="436"/>
      <point x="308" y="478"/>
      <point x="266" y="480" type="curve" smooth="yes"/>
      <point x="222" y="482"/>
      <point x="171" y="439"/>
    </contour>
  </outline>
</glyph>
<glyph name="uni2084" format="2">
  <advance width="363"/>
  <unicode hex="2084"/>
  <outline>
    <contour>
      <point x="2" y="86" type="line"/>
      <point x="53" y="127" type="line"/>
      <point x="224" y="129" type="line"/>
      <point x="234" y="129" type="line"/>
      <point x="320" y="128" type="line"/>
      <point x="305" y="85" type="line"/>
    </contour>
    <contour>
      <point x="57" y="86" type="line"/>
      <point x="2" y="87" type="line"/>
      <point x="334" y="418" type="line"/>
      <point x="357" y="419" type="line"/>
      <point x="214" y="0" type="line"/>
      <point x="164" y="0" type="line"/>
      <point x="200" y="106" type="line"/>
      <point x="202" y="112" type="line"/>
      <point x="267" y="296" type="line"/>
    </contour>
  </outline>
</glyph>
<glyph name="uni2085" format="2">
  <advance width="334"/>
  <unicode hex="2085"/>
  <outline>
    <contour>
      <point x="301" y="135" type="curve" smooth="yes"/>
      <point x="277" y="57"/>
      <point x="200" y="-7"/>
      <point x="117" y="-7" type="curve" smooth="yes"/>
      <point x="56" y="-7"/>
      <point x="21" y="28"/>
      <point x="0" y="82" type="curve"/>
      <point x="48" y="110" type="line"/>
      <point x="61" y="74"/>
      <point x="79" y="42"/>
      <point x="122" y="41" type="curve" smooth="yes"/>
      <point x="177" y="40"/>
      <point x="232" y="86"/>
      <point x="249" y="136" type="curve" smooth="yes"/>
      <point x="265" y="181"/>
      <point x="249" y="225"/>
      <point x="198" y="231" type="curve" smooth="yes"/>
      <point x="157" y="235"/>
      <point x="115" y="213"/>
      <point x="80" y="197" type="curve"/>
      <point x="118" y="233" type="line"/>
      <point x="146" y="257"/>
      <point x="187" y="278"/>
      <point x="225" y="277" type="curve" smooth="yes"/>
      <point x="302" y="275"/>
      <point x="321" y="198"/>
    </contour>
    <contour>
      <point x="235" y="373" type="line"/>
      <point x="158" y="245" type="line"/>
      <point x="69" y="186" type="line"/>
      <point x="206" y="417" type="line"/>
      <point x="395" y="417" type="line"/>
      <point x="380" y="374" type="line"/>
    </contour>
  </outline>
</glyph>
<glyph name="uni2087" format="2">
  <advance width="333"/>
  <unicode hex="2087"/>
  <outline>
    <contour>
      <point x="100" y="373" type="line"/>
      <point x="116" y="419" type="line"/>
      <point x="399" y="419" type="line"/>
      <point x="64" y="0" type="line"/>
      <point x="10" y="0" type="line"/>
      <point x="302" y="371" type="line"/>
    </contour>
  </outline>
</glyph>
<glyph name="uni2089" format="2">
  <advance width="325"/>
  <unicode hex="2089"/>
  <outline>
    <contour>
      <point x="289" y="284" type="curve" smooth="yes"/>
      <point x="304" y="327"/>
      <point x="292" y="379"/>
      <point x="239" y="381" type="curve" smooth="yes"/>
      <point x="185" y="384"/>
      <point x="129" y="332"/>
      <point x="112" y="284" type="curve" smooth="yes"/>
      <point x="97" y="241"/>
      <point x="109" y="189"/>
      <point x="162" y="186" type="curve" smooth="yes"/>
      <point x="216" y="183"/>
      <point x="272" y="236"/>
    </contour>
    <contour>
      <point x="85" y="4" type="line"/>
      <point x="19" y="5" type="line"/>
      <point x="200" y="174" type="line"/>
      <point x="206" y="167" type="line"/>
      <point x="185" y="158"/>
      <point x="164" y="147"/>
      <point x="140" y="148" type="curve" smooth="yes"/>
      <point x="68" y="150"/>
      <point x="47" y="226"/>
      <point x="65" y="285" type="curve" smooth="yes"/>
      <point x="88" y="360"/>
      <point x="165" y="427"/>
      <point x="245" y="427" type="curve" smooth="yes"/>
      <point x="325" y="427"/>
      <point x="360" y="354"/>
      <point x="337" y="283" type="curve" smooth="yes"/>
      <point x="327" y="251"/>
      <point x="307" y="222"/>
      <point x="284" y="197" type="curve"/>
    </contour>
  </outline>
</glyph>
<glyph name="ruble" format="2">
  <advance width="597.9726984107144"/>
  <unicode hex="20BD"/>
  <outline>
    <contour>
      <point x="296.0" y="700" type="line"/>
      <point x="376.0" y="700.0" type="line"/>
      <point x="136.0" y="0.0" type="line"/>
      <point x="56.0" y="0" type="line"/>
    </contour>
    <contour>
      <point x="338.0" y="620" type="line"/>
      <point x="338.0" y="700" type="line"/>
      <point x="431.0" y="700" type="line" smooth="yes"/>
      <point x="586.0" y="700.0"/>
      <point x="652.3317360646381" y="621.1675865648914"/>
      <point x="624.0" y="495" type="curve" smooth="yes"/>
      <point x="594.5009867074718" y="363.6342656633118"/>
      <point x="466.0" y="290.0"/>
      <point x="331.0" y="290" type="curve" smooth="yes"/>
      <point x="218.0" y="290" type="line"/>
      <point x="218.0" y="370" type="line"/>
      <point x="341.0" y="370" type="line" smooth="yes"/>
      <point x="456.0" y="370.0"/>
      <point x="523.0" y="425.0"/>
      <point x="544.0" y="495.0" type="curve" smooth="yes"/>
      <point x="560.0914815917215" y="548.6382719724195"/>
      <point x="546.0" y="620"/>
      <point x="431.0" y="620" type="curve" smooth="yes"/>
    </contour>
    <component base="hyphen" xOffset="166.0" yOffset="-95"/>
    <component base="hyphen" xOffset="46.0" yOffset="95"/>
    <component base="hyphen" xOffset="-19.0" yOffset="-95"/>
  </outline>
</glyph>
<glyph name="twothirds" format="2">
  <advance width="829"/>
  <unicode hex="2154"/>
  <outline>
    <contour>
      <point x="835" y="698" type="line"/>
      <point x="901" y="697" type="line"/>
      <point x="175" y="0" type="line"/>
      <point x="109" y="0" type="line"/>
    </contour>
    <contour>
      <point x="70" y="284" type="line"/>
      <point x="325" y="494" type="line" smooth="yes"/>
      <point x="354" y="518"/>
      <point x="390" y="548"/>
      <point x="402" y="586" type="curve" smooth="yes"/>
      <point x="413" y="621"/>
      <point x="401" y="655"/>
      <point x="361" y="659" type="curve" smooth="yes"/>
      <point x="301" y="665"/>
      <point x="262" y="604"/>
      <point x="237" y="560" type="curve"/>
      <point x="186" y="560" type="line"/>
      <point x="220" y="633"/>
      <point x="277" y="710"/>
      <point x="367" y="708" type="curve" smooth="yes"/>
      <point x="438" y="707"/>
      <point x="471" y="645"/>
      <point x="451" y="581" type="curve" smooth="yes"/>
      <point x="436" y="534"/>
      <point x="398" y="497"/>
      <point x="361" y="466" type="curve" smooth="yes"/>
      <point x="191" y="331" type="line"/>
      <point x="366" y="329" type="line"/>
      <point x="350" y="283" type="line"/>
    </contour>
    <contour>
      <point x="680" y="209" type="curve"/>
      <point x="691" y="240" type="line"/>
      <point x="735" y="250"/>
      <point x="781" y="266"/>
      <point x="798" y="313" type="curve" smooth="yes"/>
      <point x="809" y="343"/>
      <point x="799" y="376"/>
      <point x="764" y="379" type="curve" smooth="yes"/>
      <point x="724" y="383"/>
      <point x="695" y="346"/>
      <point x="674" y="318" type="curve"/>
      <point x="624" y="319" type="line"/>
      <point x="654" y="374"/>
      <point x="702" y="427"/>
      <point x="771" y="425" type="curve" smooth="yes"/>
      <point x="833" y="423"/>
      <point x="866" y="370"/>
      <point x="847" y="313" type="curve" smooth="yes"/>
      <point x="824" y="241"/>
      <point x="747" y="218"/>
    </contour>
    <contour>
      <point x="630" y="-5" type="curve" smooth="yes"/>
      <point x="556" y="-5"/>
      <point x="530" y="45"/>
      <point x="537" y="111" type="curve"/>
      <point x="586" y="111" type="line"/>
      <point x="586" y="74"/>
      <point x="592" y="45"/>
      <point x="636" y="43" type="curve" smooth="yes"/>
      <point x="679" y="41"/>
      <point x="727" y="78"/>
      <point x="740" y="118" type="curve" smooth="yes"/>
      <point x="757" y="171"/>
      <point x="718" y="186"/>
      <point x="675" y="195" type="curve"/>
      <point x="686" y="227" type="line"/>
      <point x="754" y="219"/>
      <point x="814" y="189"/>
      <point x="790" y="110" type="curve" smooth="yes"/>
      <point x="770" y="44"/>
      <point x="698" y="-5"/>
    </contour>
  </outline>
</glyph>
<glyph name="uni2156" format="2">
  <advance width="819"/>
  <unicode hex="2156"/>
  <outline>
    <contour>
      <point x="835" y="698" type="line"/>
      <point x="901" y="697" type="line"/>
      <point x="175" y="0" type="line"/>
      <point x="109" y="0" type="line"/>
    </contour>
    <contour>
      <point x="70" y="284" type="line"/>
      <point x="325" y="494" type="line" smooth="yes"/>
      <point x="354" y="518"/>
      <point x="390" y="548"/>
      <point x="402" y="586" type="curve" smooth="yes"/>
      <point x="413" y="621"/>
      <point x="401" y="655"/>
      <point x="361" y="659" type="curve" smooth="yes"/>
      <point x="301" y="665"/>
      <point x="262" y="604"/>
      <point x="237" y="560" type="curve"/>
      <point x="186" y="560" type="line"/>
      <point x="220" y="633"/>
      <point x="277" y="710"/>
      <point x="367" y="708" type="curve" smooth="yes"/>
      <point x="438" y="707"/>
      <point x="471" y="645"/>
      <point x="451" y="581" type="curve" smooth="yes"/>
      <point x="436" y="534"/>
      <point x="398" y="497"/>
      <point x="361" y="466" type="curve" smooth="yes"/>
      <point x="191" y="331" type="line"/>
      <point x="366" y="329" type="line"/>
      <point x="350" y="283" type="line"/>
    </contour>
    <contour>
      <point x="785" y="135" type="curve" smooth="yes"/>
      <point x="761" y="57"/>
      <point x="684" y="-7"/>
      <point x="601" y="-7" type="curve" smooth="yes"/>
      <point x="540" y="-7"/>
      <point x="506" y="28"/>
      <point x="485" y="82" type="curve"/>
      <point x="533" y="110" type="line"/>
      <point x="546" y="74"/>
      <point x="564" y="42"/>
      <point x="607" y="41" type="curve" smooth="yes"/>
      <point x="662" y="40"/>
      <point x="716" y="86"/>
      <point x="733" y="136" type="curve" smooth="yes"/>
      <point x="749" y="181"/>
      <point x="734" y="225"/>
      <point x="683" y="231" type="curve" smooth="yes"/>
      <point x="642" y="235"/>
      <point x="600" y="213"/>
      <point x="565" y="197" type="curve"/>
      <point x="602" y="233" type="line"/>
      <point x="630" y="257"/>
      <point x="671" y="278"/>
      <point x="709" y="277" type="curve" smooth="yes"/>
      <point x="786" y="275"/>
      <point x="805" y="198"/>
    </contour>
    <contour>
      <point x="719" y="373" type="line"/>
      <point x="643" y="245" type="line"/>
      <point x="553" y="186" type="line"/>
      <point x="691" y="417" type="line"/>
      <point x="880" y="417" type="line"/>
      <point x="865" y="374" type="line"/>
    </contour>
  </outline>
</glyph>
<glyph name="uni2157" format="2">
  <advance width="781"/>
  <unicode hex="2157"/>
  <outline>
    <contour>
      <point x="797" y="698" type="line"/>
      <point x="863" y="697" type="line"/>
      <point x="138" y="0" type="line"/>
      <point x="72" y="0" type="line"/>
    </contour>
    <contour>
      <point x="249" y="489" type="curve"/>
      <point x="259" y="520" type="line"/>
      <point x="303" y="530"/>
      <point x="349" y="546"/>
      <point x="366" y="593" type="curve" smooth="yes"/>
      <point x="377" y="623"/>
      <point x="368" y="656"/>
      <point x="333" y="659" type="curve" smooth="yes"/>
      <point x="293" y="663"/>
      <point x="263" y="626"/>
      <point x="242" y="598" type="curve"/>
      <point x="193" y="599" type="line"/>
      <point x="223" y="654"/>
      <point x="270" y="707"/>
      <point x="339" y="705" type="curve" smooth="yes"/>
      <point x="401" y="703"/>
      <point x="435" y="650"/>
      <point x="416" y="593" type="curve" smooth="yes"/>
      <point x="393" y="521"/>
      <point x="316" y="498"/>
    </contour>
    <contour>
      <point x="199" y="275" type="curve" smooth="yes"/>
      <point x="125" y="275"/>
      <point x="99" y="325"/>
      <point x="106" y="391" type="curve"/>
      <point x="155" y="391" type="line"/>
      <point x="155" y="354"/>
      <point x="161" y="325"/>
      <point x="205" y="323" type="curve" smooth="yes"/>
      <point x="248" y="321"/>
      <point x="296" y="358"/>
      <point x="309" y="398" type="curve" smooth="yes"/>
      <point x="326" y="451"/>
      <point x="287" y="466"/>
      <point x="244" y="475" type="curve"/>
      <point x="255" y="507" type="line"/>
      <point x="323" y="499"/>
      <point x="383" y="469"/>
      <point x="359" y="390" type="curve" smooth="yes"/>
      <point x="339" y="324"/>
      <point x="267" y="275"/>
    </contour>
    <contour>
      <point x="748" y="135" type="curve" smooth="yes"/>
      <point x="724" y="57"/>
      <point x="647" y="-7"/>
      <point x="564" y="-7" type="curve" smooth="yes"/>
      <point x="503" y="-7"/>
      <point x="468" y="28"/>
      <point x="447" y="82" type="curve"/>
      <point x="495" y="110" type="line"/>
      <point x="508" y="74"/>
      <point x="526" y="42"/>
      <point x="569" y="41" type="curve" smooth="yes"/>
      <point x="624" y="40"/>
      <point x="679" y="86"/>
      <point x="696" y="136" type="curve" smooth="yes"/>
      <point x="712" y="181"/>
      <point x="696" y="225"/>
      <point x="645" y="231" type="curve" smooth="yes"/>
      <point x="604" y="235"/>
      <point x="562" y="213"/>
      <point x="527" y="197" type="curve"/>
      <point x="565" y="233" type="line"/>
      <point x="593" y="257"/>
      <point x="634" y="278"/>
      <point x="672" y="277" type="curve" smooth="yes"/>
      <point x="749" y="275"/>
      <point x="768" y="198"/>
    </contour>
    <contour>
      <point x="681" y="373" type="line"/>
      <point x="605" y="245" type="line"/>
      <point x="516" y="186" type="line"/>
      <point x="653" y="417" type="line"/>
      <point x="842" y="417" type="line"/>
      <point x="827" y="374" type="line"/>
    </contour>
  </outline>
</glyph>
<glyph name="oneeighth" format="2">
  <advance width="715"/>
  <unicode hex="215B"/>
  <outline>
    <contour>
      <point x="715" y="698" type="line"/>
      <point x="781" y="697" type="line"/>
      <point x="56" y="0" type="line"/>
      <point x="-10" y="0" type="line"/>
    </contour>
    <contour>
      <point x="183" y="613" type="line"/>
      <point x="199" y="664" type="line"/>
      <point x="352" y="701" type="line"/>
      <point x="205" y="275" type="line"/>
      <point x="154" y="275" type="line"/>
      <point x="276" y="636" type="line"/>
    </contour>
    <contour>
      <point x="508" y="320" type="curve" smooth="yes"/>
      <point x="526" y="377"/>
      <point x="590" y="426"/>
      <point x="650" y="425" type="curve" smooth="yes"/>
      <point x="709" y="424"/>
      <point x="745" y="374"/>
      <point x="729" y="318" type="curve" smooth="yes"/>
      <point x="712" y="259"/>
      <point x="647" y="213"/>
      <point x="586" y="214" type="curve" smooth="yes"/>
      <point x="525" y="215"/>
      <point x="490" y="261"/>
    </contour>
    <contour>
      <point x="553" y="312" type="curve" smooth="yes"/>
      <point x="543" y="283"/>
      <point x="555" y="250"/>
      <point x="589" y="247" type="curve" smooth="yes"/>
      <point x="624" y="244"/>
      <point x="668" y="282"/>
      <point x="679" y="314" type="curve" smooth="yes"/>
      <point x="689" y="344"/>
      <point x="679" y="377"/>
      <point x="644" y="380" type="curve" smooth="yes"/>
      <point x="608" y="383"/>
      <point x="564" y="345"/>
    </contour>
    <contour>
      <point x="423" y="115" type="curve" smooth="yes"/>
      <point x="443" y="181"/>
      <point x="515" y="234"/>
      <point x="584" y="233" type="curve" smooth="yes"/>
      <point x="652" y="233"/>
      <point x="693" y="178"/>
      <point x="673" y="113" type="curve" smooth="yes"/>
      <point x="653" y="48"/>
      <point x="580" y="-6"/>
      <point x="512" y="-5" type="curve" smooth="yes"/>
      <point x="446" y="-4"/>
      <point x="404" y="52"/>
    </contour>
    <contour>
      <point x="473" y="120" type="curve" smooth="yes"/>
      <point x="459" y="83"/>
      <point x="475" y="42"/>
      <point x="518" y="40" type="curve" smooth="yes"/>
      <point x="563" y="38"/>
      <point x="614" y="79"/>
      <point x="628" y="120" type="curve" smooth="yes"/>
      <point x="640" y="156"/>
      <point x="625" y="198"/>
      <point x="583" y="200" type="curve" smooth="yes"/>
      <point x="539" y="202"/>
      <point x="487" y="159"/>
    </contour>
  </outline>
</glyph>
<glyph name="uni2219" format="2">
  <advance width="282"/>
  <unicode hex="2219"/>
  <outline>
    <contour>
      <point x="176" y="417" type="curve" smooth="yes"/>
      <point x="182" y="441"/>
      <point x="220" y="472"/>
      <point x="245" y="469" type="curve" smooth="yes"/>
      <point x="272" y="466"/>
      <point x="287" y="439"/>
      <point x="281" y="413" type="curve" smooth="yes"/>
      <point x="275" y="389"/>
      <point x="237" y="358"/>
      <point x="212" y="361" type="curve" smooth="yes"/>
      <point x="185" y="364"/>
      <point x="170" y="391"/>
    </contour>
  </outline>
</glyph>
<glyph name="integral" format="2">
  <advance width="600"/>
  <unicode hex="222B"/>
  <outline>
    <contour>
      <point x="47" y="-200" type="curve" smooth="yes"/>
      <point x="17" y="-199"/>
      <point x="-4" y="-188"/>
      <point x="-28" y="-158" type="curve"/>
      <point x="36" y="-96" type="line"/>
      <point x="50" y="-116"/>
      <point x="59" y="-122"/>
      <point x="71" y="-122" type="curve" smooth="yes"/>
      <point x="101" y="-122"/>
      <point x="132" y="-90"/>
      <point x="155" y="-32" type="curve" smooth="yes"/>
      <point x="412" y="626" type="line" smooth="yes"/>
      <point x="452" y="728"/>
      <point x="522" y="791"/>
      <point x="596" y="789" type="curve" smooth="yes"/>
      <point x="626" y="788"/>
      <point x="647" y="777"/>
      <point x="671" y="747" type="curve"/>
      <point x="607" y="685" type="line"/>
      <point x="593" y="705"/>
      <point x="584" y="711"/>
      <point x="572" y="711" type="curve" smooth="yes"/>
      <point x="542" y="711"/>
      <point x="510" y="678"/>
      <point x="487" y="620" type="curve" smooth="yes"/>
      <point x="230" y="-38" type="line" smooth="yes"/>
      <point x="190" y="-140"/>
      <point x="120" y="-202"/>
    </contour>
  </outline>
</glyph>
<glyph name="approxequal" format="2">
  <advance width="600"/>
  <unicode hex="2248"/>
  <outline>
    <contour>
      <point x="438" y="372" type="curve" smooth="yes"/>
      <point x="512" y="372"/>
      <point x="582" y="443"/>
      <point x="589" y="518" type="curve"/>
      <point x="512" y="523" type="line"/>
      <point x="515" y="483"/>
      <point x="486" y="447"/>
      <point x="450" y="447" type="curve" smooth="yes"/>
      <point x="430" y="447"/>
      <point x="409" y="457"/>
      <point x="377" y="479" type="curve" smooth="yes"/>
      <point x="341.451" y="503.44"/>
      <point x="308" y="527"/>
      <point x="270" y="527" type="curve" smooth="yes"/>
      <point x="189" y="527"/>
      <point x="108" y="451"/>
      <point x="105" y="381" type="curve"/>
      <point x="178" y="376" type="line"/>
      <point x="179" y="420"/>
      <point x="211" y="453"/>
      <point x="255" y="453" type="curve" smooth="yes"/>
      <point x="285" y="453"/>
      <point x="303.244" y="440.883"/>
      <point x="330" y="420" type="curve" smooth="yes"/>
      <point x="371" y="388"/>
      <point x="404" y="372"/>
    </contour>
    <contour>
      <point x="355" y="122" type="curve" smooth="yes"/>
      <point x="429" y="122"/>
      <point x="499" y="193"/>
      <point x="506" y="268" type="curve"/>
      <point x="428" y="273" type="line"/>
      <point x="431" y="233"/>
      <point x="402" y="197"/>
      <point x="366" y="197" type="curve" smooth="yes"/>
      <point x="346" y="197"/>
      <point x="335" y="207"/>
      <point x="304" y="229" type="curve" smooth="yes"/>
      <point x="268.82" y="253.967"/>
      <point x="225" y="277"/>
      <point x="187" y="277" type="curve" smooth="yes"/>
      <point x="106" y="277"/>
      <point x="25" y="201"/>
      <point x="22" y="131" type="curve"/>
      <point x="94" y="126" type="line"/>
      <point x="95" y="170"/>
      <point x="127" y="203"/>
      <point x="171" y="203" type="curve" smooth="yes"/>
      <point x="201" y="203"/>
      <point x="219.244" y="190.883"/>
      <point x="246" y="170" type="curve" smooth="yes"/>
      <point x="287" y="138"/>
      <point x="321" y="122"/>
    </contour>
  </outline>
</glyph>
<glyph name="notequal" format="2">
  <advance width="600"/>
  <unicode hex="2260"/>
  <outline>
    <contour>
      <point x="140" y="34" type="line"/>
      <point x="523" y="454" type="line"/>
      <point x="471" y="492" type="line"/>
      <point x="88" y="72" type="line"/>
    </contour>
    <contour>
      <point x="22" y="140" type="line"/>
      <point x="507" y="140" type="line"/>
      <point x="532" y="215" type="line"/>
      <point x="47" y="215" type="line"/>
    </contour>
    <contour>
      <point x="72" y="290" type="line"/>
      <point x="557" y="290" type="line"/>
      <point x="582" y="365" type="line"/>
      <point x="97" y="365" type="line"/>
    </contour>
  </outline>
</glyph>
<glyph name="lessequal" format="2">
  <advance width="600"/>
  <unicode hex="2264"/>
  <outline>
    <contour>
      <point x="-50" y="0" type="line"/>
      <point x="460" y="0" type="line"/>
      <point x="487" y="80" type="line"/>
      <point x="-23" y="80" type="line"/>
    </contour>
    <contour>
      <point x="498" y="115" type="line"/>
      <point x="525" y="195" type="line"/>
      <point x="203" y="362" type="line"/>
      <point x="634" y="520" type="line"/>
      <point x="661" y="600" type="line"/>
      <point x="77" y="380" type="line"/>
      <point x="62" y="335" type="line"/>
    </contour>
  </outline>
</glyph>
<glyph name="uniFF10" format="2">
  <advance width="545"/>
  <unicode hex="FF10"/>
  <outline>
    <contour>
      <point x="175" y="350" type="curve" smooth="yes"/>
      <point x="147" y="270"/>
      <point x="99" y="74"/>
      <point x="237" y="71" type="curve" smooth="yes"/>
      <point x="375" y="68"/>
      <point x="462" y="240"/>
      <point x="501" y="350" type="curve" smooth="yes"/>
      <point x="529" y="430"/>
      <point x="578" y="626"/>
      <point x="440" y="629" type="curve" smooth="yes"/>
      <point x="302" y="632"/>
      <point x="214" y="460"/>
    </contour>
    <contour>
      <point x="92" y="350" type="curve" smooth="yes"/>
      <point x="143" y="504"/>
      <point x="270" y="710"/>
      <point x="455" y="709" type="curve" smooth="yes"/>
      <point x="644" y="708"/>
      <point x="625" y="476"/>
      <point x="584" y="350" type="curve" smooth="yes"/>
      <point x="533" y="196"/>
      <point x="406" y="-10"/>
      <point x="221" y="-9" type="curve" smooth="yes"/>
      <point x="32" y="-8"/>
      <point x="51" y="224"/>
    </contour>
  </outline>
</glyph>
<glyph name="uniFF12" format="2">
  <advance width="545"/>
  <unicode hex="FF12"/>
  <outline>
    <contour>
      <point x="-30" y="0" type="line"/>
      <point x="396" y="353" type="line" smooth="yes"/>
      <point x="446" y="394"/>
      <point x="501" y="443"/>
      <point x="523" y="506" type="curve" smooth="yes"/>
      <point x="544" y="566"/>
      <point x="520" y="627"/>
      <point x="451" y="630" type="curve" smooth="yes"/>
      <point x="351" y="634"/>
      <point x="284" y="541"/>
      <point x="246" y="461" type="curve"/>
      <point x="164" y="462" type="line"/>
      <point x="215" y="588"/>
      <point x="318" y="712"/>
      <point x="467" y="710" type="curve" smooth="yes"/>
      <point x="586" y="709"/>
      <point x="637" y="605"/>
      <point x="603" y="499" type="curve" smooth="yes"/>
      <point x="578" y="421"/>
      <point x="516" y="358"/>
      <point x="454" y="307" type="curve" smooth="yes"/>
      <point x="166" y="81" type="line"/>
      <point x="465" y="80" type="line"/>
      <point x="438" y="0" type="line"/>
    </contour>
  </outline>
</glyph>
<glyph name="abreve.alt" format="2">
  <advance width="536"/>
  <outline>
    <contour>
      <point x="500" y="459" type="line"/>
      <point x="577" y="460" type="line"/>
      <point x="417" y="0" type="line"/>
      <point x="346" y="0" type="line"/>
    </contour>
    <contour>
      <point x="55" y="230" type="curve" smooth="yes"/>
      <point x="94" y="352"/>
      <point x="213" y="472"/>
      <point x="348" y="470" type="curve" smooth="yes"/>
      <point x="480" y="468"/>
      <point x="487" y="328"/>
      <point x="455" y="230" type="curve" smooth="yes"/>
      <point x="419" y="117"/>
      <point x="326" y="-8"/>
      <point x="196" y="-9" type="curve" smooth="yes"/>
      <point x="62" y="-10"/>
      <point x="19" y="119"/>
    </contour>
    <contour>
      <point x="134" y="230" type="curve" smooth="yes"/>
      <point x="107" y="157"/>
      <point x="127" y="66"/>
      <point x="219" y="66" type="curve" smooth="yes"/>
      <point x="309" y="66"/>
      <point x="390" y="151"/>
      <point x="419" y="230" type="curve" smooth="yes"/>
      <point x="443" y="298"/>
      <point x="430" y="390"/>
      <point x="343" y="394" type="curve" smooth="yes"/>
      <point x="249" y="398"/>
      <point x="164" y="312"/>
    </contour>
    <contour>
      <point x="231" y="669" type="curve"/>
      <point x="298" y="668" type="line"/>
      <point x="296" y="628"/>
      <point x="306" y="596"/>
      <point x="353" y="595" type="curve" smooth="yes"/>
      <point x="404" y="594"/>
      <point x="436" y="629"/>
      <point x="461" y="668" type="curve"/>
      <point x="531" y="667" type="line"/>
      <point x="496" y="591"/>
      <point x="432" y="530"/>
      <point x="343" y="530" type="curve" smooth="yes"/>
      <point x="257" y="530"/>
      <point x="222" y="590"/>
    </contour>
  </outline>
</glyph>
<glyph name="aogonek.alt" format="2">
  <advance width="536"/>
  <outline>
    <contour>
      <point x="500" y="459" type="line"/>
      <point x="577" y="460" type="line"/>
      <point x="417" y="1" type="line"/>
      <point x="346" y="0" type="line"/>
    </contour>
    <contour>
      <point x="55" y="230" type="curve" smooth="yes"/>
      <point x="94" y="352"/>
      <point x="213" y="472"/>
      <point x="348" y="470" type="curve" smooth="yes"/>
      <point x="480" y="468"/>
      <point x="487" y="328"/>
      <point x="455" y="230" type="curve" smooth="yes"/>
      <point x="419" y="117"/>
      <point x="326" y="-8"/>
      <point x="196" y="-9" type="curve" smooth="yes"/>
      <point x="62" y="-10"/>
      <point x="19" y="119"/>
    </contour>
    <contour>
      <point x="134" y="230" type="curve" smooth="yes"/>
      <point x="107" y="157"/>
      <point x="127" y="66"/>
      <point x="219" y="66" type="curve" smooth="yes"/>
      <point x="309" y="66"/>
      <point x="390" y="151"/>
      <point x="419" y="230" type="curve" smooth="yes"/>
      <point x="443" y="298"/>
      <point x="430" y="390"/>
      <point x="343" y="394" type="curve" smooth="yes"/>
      <point x="249" y="398"/>
      <point x="164" y="312"/>
    </contour>
    <contour>
      <point x="375" y="-130" type="curve"/>
      <point x="391" y="-183" type="line"/>
      <point x="362" y="-202"/>
      <point x="333" y="-218"/>
      <point x="298" y="-219" type="curve" smooth="yes"/>
      <point x="238" y="-221"/>
      <point x="193" y="-181"/>
      <point x="211" y="-119" type="curve" smooth="yes"/>
      <point x="233" y="-46"/>
      <point x="319" y="-6"/>
      <point x="382" y="24" type="curve"/>
      <point x="418" y="0" type="line"/>
      <point x="377" y="-23"/>
      <point x="309" y="-49"/>
      <point x="295" y="-100" type="curve" smooth="yes"/>
      <point x="289" y="-122"/>
      <point x="295" y="-145"/>
      <point x="320" y="-149" type="curve" smooth="yes"/>
      <point x="338" y="-152"/>
      <point x="360" y="-138"/>
    </contour>
  </outline>
</glyph>
